<svg xmlns="http://www.w3.org/2000/svg" width="270.12" height="188.341" viewBox="0 0 270.12 188.341"><g id="Consultative_sales-bro" data-name="Consultative sales-bro" transform="translate(-101.55 -41.89)"><g id="freepik--light-bulb--inject-2" transform="translate(319.367 51.18)"><path id="Path_6529" data-name="Path 6529" d="M638.212,99.6a15.976,15.976,0,1,0-28.248,10.222,15.683,15.683,0,0,1,3.641,10.05v2.186H630.85v-2.186a15.642,15.642,0,0,1,3.613-10.041A15.917,15.917,0,0,0,638.212,99.6Z" transform="translate(-595.971 -73.782)" fill="#fff"></path><path id="Path_6529_-_Outline" data-name="Path 6529 - Outline" d="M622.237,83.112h0a16.444,16.444,0,0,1,12.608,27.037,15.166,15.166,0,0,0-3.5,9.717v2.187a.5.5,0,0,1-.5.5H613.6a.5.5,0,0,1-.5-.5v-2.186a15.21,15.21,0,0,0-3.524-9.73,16.477,16.477,0,0,1,12.657-27.026Zm8.113,38.442v-1.686a16.169,16.169,0,0,1,3.729-10.361,15.461,15.461,0,1,0-23.731-.01,16.212,16.212,0,0,1,3.756,10.37v1.686Z" transform="translate(-595.971 -73.782)" fill="#263238"></path><rect id="Rectangle_1077" data-name="Rectangle 1077" width="17.268" height="4.273" transform="translate(17.611 48.276)" fill="#bb002f"></rect><path id="Rectangle_1077_-_Outline" data-name="Rectangle 1077 - Outline" d="M0-.5H17.268a.5.5,0,0,1,.5.5V4.273a.5.5,0,0,1-.5.5H0a.5.5,0,0,1-.5-.5V0A.5.5,0,0,1,0-.5ZM16.768.5H.5V3.773H16.768Z" transform="translate(17.611 48.276)" fill="#263238"></path><path id="Path_6530" data-name="Path 6530" d="M622.464,178.21h17.268v2.136a2.136,2.136,0,0,1-2.136,2.136h-13a2.136,2.136,0,0,1-2.136-2.136V178.21Z" transform="translate(-604.853 -125.652)" fill="#bb002f"></path><path id="Path_6530_-_Outline" data-name="Path 6530 - Outline" d="M622.46,177.71h17.272a.5.5,0,0,1,.5.5v2.136a2.639,2.639,0,0,1-2.636,2.636h-13a2.639,2.639,0,0,1-2.636-2.636V178.21A.5.5,0,0,1,622.46,177.71Zm16.772,1H622.96v1.636a1.638,1.638,0,0,0,1.636,1.636h13a1.638,1.638,0,0,0,1.636-1.636Z" transform="translate(-604.853 -125.652)" fill="#263238"></path><path id="Path_6531" data-name="Path 6531" d="M627.29,187.66H640.2v1.355a2.9,2.9,0,0,1-2.9,2.9h-7.119a2.9,2.9,0,0,1-2.9-2.9V187.66Z" transform="translate(-607.502 -130.834)" fill="#263238"></path><path id="Path_6531_-_Outline" data-name="Path 6531 - Outline" d="M627.29,187.16H640.2a.5.5,0,0,1,.5.5v1.355a3.4,3.4,0,0,1-3.4,3.4h-7.119a3.4,3.4,0,0,1-3.4-3.4V187.66A.5.5,0,0,1,627.29,187.16Zm12.409,1H627.79v.855a2.4,2.4,0,0,0,2.4,2.4H637.3a2.4,2.4,0,0,0,2.4-2.4Z" transform="translate(-607.502 -130.834)" fill="#263238"></path><path id="Line_753" data-name="Line 753" d="M7.317.5H0A.5.5,0,0,1-.5,0,.5.5,0,0,1,0-.5H7.317a.5.5,0,0,1,.5.5A.5.5,0,0,1,7.317.5Z" transform="translate(44.486 25.9)" fill="#263238"></path><path id="Line_754" data-name="Line 754" d="M7.412.5H0A.5.5,0,0,1-.5,0,.5.5,0,0,1,0-.5H7.412a.5.5,0,0,1,.5.5A.5.5,0,0,1,7.412.5Z" transform="translate(0 25.9)" fill="#263238"></path><path id="Line_755" data-name="Line 755" d="M0,7.835a.5.5,0,0,1-.5-.5V0A.5.5,0,0,1,0-.5.5.5,0,0,1,.5,0V7.335A.5.5,0,0,1,0,7.835Z" transform="translate(25.904)" fill="#263238"></path><path id="Line_756" data-name="Line 756" d="M0,5.55A.5.5,0,0,1-.354,5.4a.5.5,0,0,1,0-.707L4.7-.354a.5.5,0,0,1,.707,0,.5.5,0,0,1,0,.707L.354,5.4A.5.5,0,0,1,0,5.55Z" transform="translate(39.165 7.584)" fill="#263238"></path><path id="Line_757" data-name="Line 757" d="M0,5.622a.5.5,0,0,1-.354-.146.5.5,0,0,1,0-.707L4.769-.354a.5.5,0,0,1,.707,0,.5.5,0,0,1,0,.707L.354,5.476A.5.5,0,0,1,0,5.622Z" transform="translate(7.588 39.089)" fill="#263238"></path><path id="Line_758" data-name="Line 758" d="M4.905,5.405a.5.5,0,0,1-.354-.146L-.354.354a.5.5,0,0,1,0-.707.5.5,0,0,1,.707,0L5.259,4.552a.5.5,0,0,1-.354.854Z" transform="translate(7.588 7.584)" fill="#263238"></path><path id="Line_759" data-name="Line 759" d="M4.883,5.383a.5.5,0,0,1-.354-.146L-.354.354a.5.5,0,0,1,0-.707.5.5,0,0,1,.707,0L5.236,4.529a.5.5,0,0,1-.354.854Z" transform="translate(39.333 39.328)" fill="#263238"></path></g><g id="freepik--Arrow--inject-2" transform="translate(208.903 42.39)"><path id="Path_6532" data-name="Path 6532" d="M381.211,71.627,360.068,42.39,338.92,71.627h8.7v32.481h24.9V71.627Z" transform="translate(-338.92 -42.39)" fill="#bb002f"></path><path id="Path_6532_-_Outline" data-name="Path 6532 - Outline" d="M360.068,41.89h0a.5.5,0,0,1,.405.207l21.143,29.237a.5.5,0,0,1-.405.793h-8.195v31.981a.5.5,0,0,1-.5.5h-24.9a.5.5,0,0,1-.5-.5V72.127h-8.2a.5.5,0,0,1-.405-.793L359.663,42.1A.5.5,0,0,1,360.068,41.89Zm20.165,29.237L360.068,43.243,339.9,71.127h7.721a.5.5,0,0,1,.5.5v31.981h23.9V71.627a.5.5,0,0,1,.5-.5Z" transform="translate(-338.92 -42.39)" fill="#263238"></path></g><g id="freepik--Coin--inject-2" transform="translate(204.905 75.079)"><circle id="Ellipse_200" data-name="Ellipse 200" cx="21.798" cy="21.798" r="21.798" transform="translate(0 6.955) rotate(-9.18)" fill="#fff"></circle><path id="Ellipse_200_-_Outline" data-name="Ellipse 200 - Outline" d="M21.8-.5a22.3,22.3,0,0,1,8.68,42.844A22.3,22.3,0,0,1,13.119,1.253,22.159,22.159,0,0,1,21.8-.5Zm0,43.6A21.3,21.3,0,1,0,.5,21.8,21.322,21.322,0,0,0,21.8,43.1Z" transform="translate(0 6.955) rotate(-9.18)" fill="#263238"></path><circle id="Ellipse_201" data-name="Ellipse 201" cx="18.582" cy="18.582" r="18.582" transform="matrix(0.45, -0.893, 0.893, 0.45, 0.045, 33.226)" fill="#fff"></circle><path id="Ellipse_201_-_Outline" data-name="Ellipse 201 - Outline" d="M18.582-.5A19.087,19.087,0,0,1,26.01,36.165,19.087,19.087,0,0,1,11.154,1,18.963,18.963,0,0,1,18.582-.5Zm0,37.164A18.082,18.082,0,1,0,.5,18.582,18.1,18.1,0,0,0,18.582,36.664Z" transform="matrix(0.45, -0.893, 0.893, 0.45, 0.045, 33.226)" fill="#263238"></path><path id="Path_6533" data-name="Path 6533" d="M384.685,158.433c0-4.865-6.893-4.969-6.893-7,0-1.066.56-1.387,1.712-1.387a4.088,4.088,0,0,1,2.778,1.283l2.258-2.62a7,7,0,0,0-4.034-2.258v-2.71h-2.981v2.828a4.89,4.89,0,0,0-4.115,5.09c0,4.679,6.893,4.969,6.893,7.109,0,1.043-.533,1.5-1.87,1.5a6.085,6.085,0,0,1-3.686-1.5l-1.978,3.1a9.056,9.056,0,0,0,4.756,2.019v2.683h2.995V163.7A5.083,5.083,0,0,0,384.685,158.433Z" transform="translate(-353.482 -130.651)" fill="#bb002f"></path><path id="Path_6533_-_Outline" data-name="Path 6533 - Outline" d="M380.521,167.068h-2.995a.5.5,0,0,1-.5-.5v-2.247a9.53,9.53,0,0,1-4.575-2.07.5.5,0,0,1-.1-.654l1.978-3.1a.5.5,0,0,1,.721-.131,5.636,5.636,0,0,0,3.386,1.4c1.272,0,1.37-.412,1.37-1,0-.555-1.061-1.087-2.185-1.65-1.987-1-4.708-2.359-4.708-5.459a5.706,5.706,0,0,1,1.2-3.666,5.616,5.616,0,0,1,2.91-1.816V143.74a.5.5,0,0,1,.5-.5h2.981a.5.5,0,0,1,.5.5v2.3a7.533,7.533,0,0,1,3.908,2.335.5.5,0,0,1,0,.658l-2.258,2.62a.5.5,0,0,1-.71.048,3.611,3.611,0,0,0-2.447-1.157c-1.092,0-1.212.284-1.212.887,0,.481,1.05.976,2.066,1.455,2.037.96,4.826,2.275,4.826,5.546a5.538,5.538,0,0,1-4.165,5.645v2.49A.5.5,0,0,1,380.521,167.068Zm-2.495-1h1.995V163.7a.5.5,0,0,1,.382-.486,4.586,4.586,0,0,0,3.783-4.776c0-2.638-2.259-3.7-4.253-4.642-1.417-.668-2.64-1.244-2.64-2.359,0-1.691,1.262-1.887,2.212-1.887a4.214,4.214,0,0,1,2.721,1.083l1.641-1.9a6.529,6.529,0,0,0-3.447-1.781.5.5,0,0,1-.413-.492v-2.21h-1.981v2.328a.5.5,0,0,1-.395.489,4.414,4.414,0,0,0-3.72,4.6c0,2.483,2.208,3.589,4.156,4.565,1.469.736,2.737,1.372,2.737,2.544,0,2-1.784,2-2.37,2a6.133,6.133,0,0,1-3.549-1.281l-1.45,2.271a8.532,8.532,0,0,0,4.147,1.635.5.5,0,0,1,.444.5Z" transform="translate(-353.482 -130.651)" fill="#263238"></path></g><g id="freepik--Charts--inject-2" transform="translate(101.8 53.912)"><circle id="Ellipse_202" data-name="Ellipse 202" cx="14.192" cy="14.192" r="14.192" transform="matrix(0.984, -0.178, 0.178, 0.984, 1.206, 5.065)" fill="#fff"></circle><path id="Ellipse_202_-_Outline" data-name="Ellipse 202 - Outline" d="M14.192-.5A14.692,14.692,0,0,1,24.581,24.581,14.692,14.692,0,0,1,3.8,3.8,14.6,14.6,0,0,1,14.192-.5Zm0,28.384A13.692,13.692,0,1,0,.5,14.192,13.707,13.707,0,0,0,14.192,27.884Z" transform="matrix(0.984, -0.178, 0.178, 0.984, 1.206, 5.065)" fill="#263238"></path><path id="Path_6534" data-name="Path 6534" d="M145.006,74.31,141,87.915h14.192a14.187,14.187,0,0,0-10.185-13.6Z" transform="translate(-123.294 -71.415)" fill="#bb002f"></path><path id="Path_6534_-_Outline" data-name="Path 6534 - Outline" d="M145.006,73.81a.5.5,0,0,1,.141.02,14.687,14.687,0,0,1,10.544,14.084.5.5,0,0,1-.5.5H141a.5.5,0,0,1-.48-.641l4.006-13.6A.5.5,0,0,1,145.006,73.81Zm9.676,13.6a13.775,13.775,0,0,0-9.34-12.475l-3.674,12.475Z" transform="translate(-123.294 -71.415)" fill="#263238"></path><path id="Path_6535" data-name="Path 6535" d="M160.51,76.8a.25.25,0,0,1-.191-.412l5.632-6.64a.25.25,0,0,1,.191-.088h4.833a.25.25,0,0,1,0,.5h-4.717L160.7,76.711A.249.249,0,0,1,160.51,76.8Z" transform="translate(-133.992 -69.002)" fill="#263238"></path><path id="Line_760" data-name="Line 760" d="M7.245.25H0A.25.25,0,0,1-.25,0,.25.25,0,0,1,0-.25H7.245a.25.25,0,0,1,.25.25A.25.25,0,0,1,7.245.25Z" transform="translate(40.408 1.107)" fill="#263238"></path><path id="Line_761" data-name="Line 761" d="M7.245.25H0A.25.25,0,0,1-.25,0,.25.25,0,0,1,0-.25H7.245a.25.25,0,0,1,.25.25A.25.25,0,0,1,7.245.25Z" transform="translate(40.408 2.918)" fill="#263238"></path><path id="Line_762" data-name="Line 762" d="M7.245.25H0A.25.25,0,0,1-.25,0,.25.25,0,0,1,0-.25H7.245a.25.25,0,0,1,.25.25A.25.25,0,0,1,7.245.25Z" transform="translate(40.408 4.729)" fill="#263238"></path><path id="Line_763" data-name="Line 763" d="M7.245.25H0A.25.25,0,0,1-.25,0,.25.25,0,0,1,0-.25H7.245a.25.25,0,0,1,.25.25A.25.25,0,0,1,7.245.25Z" transform="translate(40.408 6.54)" fill="#263238"></path><rect id="Rectangle_1078" data-name="Rectangle 1078" width="4.128" height="12.317" transform="translate(0 45.697)" fill="#263238"></rect><path id="Rectangle_1078_-_Outline" data-name="Rectangle 1078 - Outline" d="M0-.25H4.128a.25.25,0,0,1,.25.25V12.317a.25.25,0,0,1-.25.25H0a.25.25,0,0,1-.25-.25V0A.25.25,0,0,1,0-.25Zm3.878.5H.25V12.067H3.878Z" transform="translate(0 45.697)" fill="#263238"></path><rect id="Rectangle_1079" data-name="Rectangle 1079" width="4.128" height="7.886" transform="translate(6.486 50.128)" fill="#bb002f"></rect><path id="Rectangle_1079_-_Outline" data-name="Rectangle 1079 - Outline" d="M0-.5H4.128a.5.5,0,0,1,.5.5V7.886a.5.5,0,0,1-.5.5H0a.5.5,0,0,1-.5-.5V0A.5.5,0,0,1,0-.5ZM3.628.5H.5V7.386H3.628Z" transform="translate(6.486 50.128)" fill="#263238"></path><rect id="Rectangle_1080" data-name="Rectangle 1080" width="4.128" height="15.014" transform="translate(12.977 43)" fill="#263238"></rect><path id="Rectangle_1080_-_Outline" data-name="Rectangle 1080 - Outline" d="M0-.25H4.128a.25.25,0,0,1,.25.25V15.014a.25.25,0,0,1-.25.25H0a.25.25,0,0,1-.25-.25V0A.25.25,0,0,1,0-.25Zm3.878.5H.25V14.764H3.878Z" transform="translate(12.977 43)" fill="#263238"></path><rect id="Rectangle_1081" data-name="Rectangle 1081" width="4.128" height="11.911" transform="translate(19.468 46.108)" fill="#bb002f"></rect><path id="Rectangle_1081_-_Outline" data-name="Rectangle 1081 - Outline" d="M0-.5H4.128a.5.5,0,0,1,.5.5V11.911a.5.5,0,0,1-.5.5H0a.5.5,0,0,1-.5-.5V0A.5.5,0,0,1,0-.5ZM3.628.5H.5V11.411H3.628Z" transform="translate(19.468 46.108)" fill="#263238"></path><rect id="Rectangle_1082" data-name="Rectangle 1082" width="4.128" height="14.63" transform="translate(25.954 43.384)" fill="#263238"></rect><path id="Rectangle_1082_-_Outline" data-name="Rectangle 1082 - Outline" d="M0-.25H4.128a.25.25,0,0,1,.25.25V14.63a.25.25,0,0,1-.25.25H0a.25.25,0,0,1-.25-.25V0A.25.25,0,0,1,0-.25Zm3.878.5H.25V14.38H3.878Z" transform="translate(25.954 43.384)" fill="#263238"></path><rect id="Rectangle_1083" data-name="Rectangle 1083" width="4.128" height="23.302" transform="translate(32.444 34.716)" fill="#bb002f"></rect><path id="Rectangle_1083_-_Outline" data-name="Rectangle 1083 - Outline" d="M0-.5H4.128a.5.5,0,0,1,.5.5V23.3a.5.5,0,0,1-.5.5H0a.5.5,0,0,1-.5-.5V0A.5.5,0,0,1,0-.5ZM3.628.5H.5V22.8H3.628Z" transform="translate(32.444 34.716)" fill="#263238"></path><path id="Line_764" data-name="Line 764" d="M2.417.25H0A.25.25,0,0,1-.25,0,.25.25,0,0,1,0-.25H2.417a.25.25,0,0,1,.25.25A.25.25,0,0,1,2.417.25Z" transform="translate(41.212 34.472)" fill="#263238"></path><path id="Line_765" data-name="Line 765" d="M2.417.25H0A.25.25,0,0,1-.25,0,.25.25,0,0,1,0-.25H2.417a.25.25,0,0,1,.25.25A.25.25,0,0,1,2.417.25Z" transform="translate(41.212 39.179)" fill="#263238"></path><path id="Line_766" data-name="Line 766" d="M2.417.25H0A.25.25,0,0,1-.25,0,.25.25,0,0,1,0-.25H2.417a.25.25,0,0,1,.25.25A.25.25,0,0,1,2.417.25Z" transform="translate(41.212 43.89)" fill="#263238"></path><path id="Line_767" data-name="Line 767" d="M2.417.25H0A.25.25,0,0,1-.25,0,.25.25,0,0,1,0-.25H2.417a.25.25,0,0,1,.25.25A.25.25,0,0,1,2.417.25Z" transform="translate(41.212 48.601)" fill="#263238"></path><path id="Line_768" data-name="Line 768" d="M2.417.25H0A.25.25,0,0,1-.25,0,.25.25,0,0,1,0-.25H2.417a.25.25,0,0,1,.25.25A.25.25,0,0,1,2.417.25Z" transform="translate(41.212 53.312)" fill="#263238"></path><path id="Line_769" data-name="Line 769" d="M2.417.25H0A.25.25,0,0,1-.25,0,.25.25,0,0,1,0-.25H2.417a.25.25,0,0,1,.25.25A.25.25,0,0,1,2.417.25Z" transform="translate(41.212 58.019)" fill="#263238"></path><path id="Path_6536" data-name="Path 6536" d="M113.353,145.684a.5.5,0,0,1-.259-.072l-6.324-3.826a.5.5,0,1,1,.518-.856l5.976,3.616,6.3-6.75a.5.5,0,0,1,.407-.157l6.383.537,6.058-2.4,7.043-9.266a.5.5,0,0,1,.8.605l-7.128,9.377a.5.5,0,0,1-.214.162l-6.3,2.5a.5.5,0,0,1-.226.033l-6.258-.526-6.415,6.869A.5.5,0,0,1,113.353,145.684Z" transform="translate(-104.668 -100.201)" fill="#263238"></path><path id="Path_6537" data-name="Path 6537" d="M106.849,158.029a.795.795,0,1,0-.231.565A.8.8,0,0,0,106.849,158.029Z" transform="translate(-103.692 -116.881)" fill="#263238"></path><path id="Path_6538" data-name="Path 6538" d="M120.859,166.519a.795.795,0,1,0-.233.567A.8.8,0,0,0,120.859,166.519Z" transform="translate(-111.374 -121.536)" fill="#263238"></path><path id="Path_6539" data-name="Path 6539" d="M135.419,150.919a.795.795,0,1,0-.231.565A.8.8,0,0,0,135.419,150.919Z" transform="translate(-119.357 -112.983)" fill="#263238"></path><path id="Path_6540" data-name="Path 6540" d="M149.809,152.129a.795.795,0,1,0-.231.565A.8.8,0,0,0,149.809,152.129Z" transform="translate(-127.247 -113.646)" fill="#263238"></path><path id="Path_6541" data-name="Path 6541" d="M163.759,146.319a.8.8,0,1,0-.8.8A.8.8,0,0,0,163.759,146.319Z" transform="translate(-134.896 -110.46)" fill="#263238"></path><path id="Path_6542" data-name="Path 6542" d="M179.529,125.839a.8.8,0,1,0-.795.8A.8.8,0,0,0,179.529,125.839Z" transform="translate(-143.543 -99.231)" fill="#263238"></path></g><g id="freepik--character-2--inject-2" transform="translate(240.096 83.12)"><rect id="Rectangle_1084" data-name="Rectangle 1084" width="2.575" height="24.806" transform="translate(57.684 126.858) rotate(180)" fill="#263238"></rect><path id="Rectangle_1084_-_Outline" data-name="Rectangle 1084 - Outline" d="M0-.5H2.575a.5.5,0,0,1,.5.5V24.806a.5.5,0,0,1-.5.5H0a.5.5,0,0,1-.5-.5V0A.5.5,0,0,1,0-.5ZM2.075.5H.5V24.306H2.075Z" transform="translate(57.684 126.858) rotate(180)" fill="#263238"></path><rect id="Rectangle_1085" data-name="Rectangle 1085" width="4.571" height="24.806" transform="translate(72.472 103.453) rotate(-173.33)" fill="#263238"></rect><path id="Rectangle_1085_-_Outline" data-name="Rectangle 1085 - Outline" d="M0-.5H4.571a.5.5,0,0,1,.5.5V24.806a.5.5,0,0,1-.5.5H0a.5.5,0,0,1-.5-.5V0A.5.5,0,0,1,0-.5ZM4.071.5H.5V24.306H4.071Z" transform="translate(72.472 103.453) rotate(-173.33)" fill="#263238"></path><path id="Path_6543" data-name="Path 6543" d="M494.587,410.593V406.41h6.536v4.219l26.143,10.493v4.95h-1.784v-3.763L497.763,416l-26.988,6.31v3.763H469.04v-4.95Z" transform="translate(-441.46 -282.719)" fill="#8c8c8c"></path><path id="Path_6543_-_Outline" data-name="Path 6543 - Outline" d="M494.587,405.91h6.536a.5.5,0,0,1,.5.5v3.881l25.83,10.367a.5.5,0,0,1,.314.464v4.95a.5.5,0,0,1-.5.5h-1.784a.5.5,0,0,1-.5-.5v-3.364l-27.218-6.2-26.49,6.193v3.366a.5.5,0,0,1-.5.5H469.04a.5.5,0,0,1-.5-.5v-4.95a.5.5,0,0,1,.31-.462l25.238-10.4V406.41A.5.5,0,0,1,494.587,405.91Zm6.036,1h-5.536v3.683a.5.5,0,0,1-.309.462l-25.238,10.4v4.116h.734v-3.263a.5.5,0,0,1,.386-.487l26.988-6.31a.5.5,0,0,1,.225,0l27.72,6.31a.5.5,0,0,1,.389.488v3.263h.784v-4.112l-25.83-10.367a.5.5,0,0,1-.314-.464Z" transform="translate(-441.46 -282.719)" fill="#263238"></path><rect id="Rectangle_1086" data-name="Rectangle 1086" width="12.873" height="7.923" transform="translate(62.833 109.974) rotate(180)" fill="#263238"></rect><path id="Rectangle_1086_-_Outline" data-name="Rectangle 1086 - Outline" d="M0-.5H12.873a.5.5,0,0,1,.5.5V7.923a.5.5,0,0,1-.5.5H0a.5.5,0,0,1-.5-.5V0A.5.5,0,0,1,0-.5ZM12.373.5H.5V7.423H12.373Z" transform="translate(62.833 109.974) rotate(180)" fill="#263238"></path><path id="Path_6544" data-name="Path 6544" d="M598,447.013a2.769,2.769,0,1,1,.809,1.961A2.773,2.773,0,0,1,598,447.013Z" transform="translate(-512.171 -303.461)" fill="#263238"></path><path id="Path_6544_-_Outline" data-name="Path 6544 - Outline" d="M600.773,443.74h0a3.273,3.273,0,0,1,0,6.547h-.005a3.273,3.273,0,0,1,.005-6.547Zm0,5.547a2.273,2.273,0,1,0,.006-4.547v0a2.273,2.273,0,1,0,0,4.547Z" transform="translate(-512.171 -303.461)" fill="#263238"></path><path id="Path_6545" data-name="Path 6545" d="M601.45,448.938a1.188,1.188,0,1,1,1.188,1.188A1.188,1.188,0,0,1,601.45,448.938Z" transform="translate(-514.063 -305.386)" fill="#fff"></path><path id="Path_6545_-_Outline" data-name="Path 6545 - Outline" d="M602.638,447.25a1.688,1.688,0,1,1-1.688,1.688A1.69,1.69,0,0,1,602.638,447.25Zm0,2.376a.688.688,0,1,0-.688-.688A.689.689,0,0,0,602.638,449.626Z" transform="translate(-514.063 -305.386)" fill="#263238"></path><path id="Path_6546" data-name="Path 6546" d="M456.32,447.013a2.773,2.773,0,1,1,2.773,2.773A2.773,2.773,0,0,1,456.32,447.013Z" transform="translate(-434.486 -303.461)" fill="#263238"></path><path id="Path_6546_-_Outline" data-name="Path 6546 - Outline" d="M459.093,443.74a3.273,3.273,0,1,1-3.273,3.273A3.277,3.277,0,0,1,459.093,443.74Zm0,5.547a2.273,2.273,0,1,0-1.607-.666A2.276,2.276,0,0,0,459.093,449.287Z" transform="translate(-434.486 -303.461)" fill="#263238"></path><circle id="Ellipse_203" data-name="Ellipse 203" cx="1.188" cy="1.188" r="1.188" transform="translate(23.42 142.364)" fill="#fff"></circle><path id="Ellipse_203_-_Outline" data-name="Ellipse 203 - Outline" d="M1.188-.5A1.688,1.688,0,1,1-.5,1.188,1.69,1.69,0,0,1,1.188-.5Zm0,2.376A.688.688,0,1,0,.5,1.188.689.689,0,0,0,1.188,1.876Z" transform="translate(23.42 142.364)" fill="#263238"></path><path id="Path_6547" data-name="Path 6547" d="M528.879,432.226h2.177l1.093-14.856H527.79Z" transform="translate(-473.674 -288.728)" fill="#8c8c8c"></path><path id="Path_6547_-_Outline" data-name="Path 6547 - Outline" d="M531.056,432.726h-2.177a.5.5,0,0,1-.5-.463l-1.089-14.856a.5.5,0,0,1,.5-.537h4.359a.5.5,0,0,1,.5.537l-1.093,14.856A.5.5,0,0,1,531.056,432.726Zm-1.712-1h1.248l1.019-13.856h-3.283Z" transform="translate(-473.674 -288.728)" fill="#263238"></path><rect id="Rectangle_1087" data-name="Rectangle 1087" width="2.177" height="6.138" transform="translate(57.486 146.465) rotate(180)" fill="#263238"></rect><path id="Rectangle_1087_-_Outline" data-name="Rectangle 1087 - Outline" d="M0-.5H2.177a.5.5,0,0,1,.5.5V6.138a.5.5,0,0,1-.5.5H0a.5.5,0,0,1-.5-.5V0A.5.5,0,0,1,0-.5ZM1.677.5H.5V5.638H1.677Z" transform="translate(57.486 146.465) rotate(180)" fill="#263238"></path><path id="Path_6548" data-name="Path 6548" d="M560.134,271.388h0a9.716,9.716,0,0,0,10.606-8.74l3.035-31.577a9.72,9.72,0,0,0-8.74-10.606h0a9.725,9.725,0,0,0-10.606,8.745l-3.04,31.618A9.716,9.716,0,0,0,560.134,271.388Z" transform="translate(-486.591 -180.737)" fill="#8c8c8c"></path><path id="Path_6548_-_Outline" data-name="Path 6548 - Outline" d="M561.081,271.934h0c-.33,0-.664-.016-.994-.048a10.216,10.216,0,0,1-9.194-11.1l3.04-31.62a10.226,10.226,0,0,1,10.166-9.242c.327,0,.658.016.985.047a10.22,10.22,0,0,1,9.19,11.151L571.238,262.7a10.217,10.217,0,0,1-10.157,9.238Zm3.017-51.013a9.184,9.184,0,0,0-9.171,8.338l-3.04,31.618a9.234,9.234,0,0,0,8.295,10.015c.3.029.6.043.9.043a9.174,9.174,0,0,0,9.162-8.334l3.035-31.577a9.232,9.232,0,0,0-8.29-10.06C564.692,220.935,564.393,220.921,564.1,220.921Z" transform="translate(-486.591 -180.737)" fill="#263238"></path><path id="Path_6549" data-name="Path 6549" d="M555.035,270.881h0a9.72,9.72,0,0,0,10.605-8.74l3.04-31.618a9.72,9.72,0,0,0-8.745-10.578h0a9.716,9.716,0,0,0-10.6,8.745L546.3,260.28A9.716,9.716,0,0,0,555.035,270.881Z" transform="translate(-483.796 -180.452)" fill="#8c8c8c"></path><path id="Path_6549_-_Outline" data-name="Path 6549 - Outline" d="M555.977,271.427h0c-.328,0-.661-.016-.99-.048a10.228,10.228,0,0,1-9.19-11.147l3.04-31.591a10.217,10.217,0,0,1,10.158-9.242c.328,0,.661.016.989.048a10.22,10.22,0,0,1,9.195,11.123l-3.04,31.619a10.221,10.221,0,0,1-10.161,9.238Zm3.018-51.027a9.174,9.174,0,0,0-9.162,8.337l-3.04,31.591a9.226,9.226,0,0,0,8.29,10.055c.3.029.6.043.894.043a9.18,9.18,0,0,0,9.166-8.334l3.04-31.618a9.236,9.236,0,0,0-8.295-10.033C559.591,220.414,559.291,220.4,558.995,220.4Z" transform="translate(-483.796 -180.452)" fill="#263238"></path><path id="Path_6550" data-name="Path 6550" d="M469.846,350.543l45.331,1.192a1.915,1.915,0,0,0,1.974-1.856l.23-7.254a1.915,1.915,0,0,0-1.856-1.974L470.2,339.459a1.911,1.911,0,0,0-1.974,1.852L468,348.569a1.915,1.915,0,0,0,1.847,1.974Z" transform="translate(-440.889 -246.007)" fill="#8c8c8c"></path><path id="Path_6550_-_Outline" data-name="Path 6550 - Outline" d="M515.238,352.236h-.076l-45.328-1.192a2.421,2.421,0,0,1-2.334-2.489l.226-7.258a2.411,2.411,0,0,1,2.49-2.336l45.323,1.192a2.415,2.415,0,0,1,2.343,2.489l-.23,7.254A2.4,2.4,0,0,1,515.238,352.236Zm-45.1-12.279a1.406,1.406,0,0,0-.965.382,1.42,1.42,0,0,0-.445.986l-.226,7.259a1.418,1.418,0,0,0,1.365,1.459l45.327,1.192h.048a1.408,1.408,0,0,0,1.413-1.372l.23-7.255a1.415,1.415,0,0,0-1.372-1.458l-45.324-1.192Z" transform="translate(-440.889 -246.007)" fill="#263238"></path><rect id="Rectangle_1088" data-name="Rectangle 1088" width="30.227" height="11.089" rx="4.24" transform="translate(76.209 105.78) rotate(-178.19)" fill="#8c8c8c"></rect><path id="Rectangle_1088_-_Outline" data-name="Rectangle 1088 - Outline" d="M4.24-.5H25.987a4.745,4.745,0,0,1,4.74,4.74V6.849a4.745,4.745,0,0,1-4.74,4.74H4.24A4.745,4.745,0,0,1-.5,6.849V4.24A4.745,4.745,0,0,1,4.24-.5ZM25.987,10.589a3.744,3.744,0,0,0,3.74-3.74V4.24A3.744,3.744,0,0,0,25.987.5H4.24A3.744,3.744,0,0,0,.5,4.24V6.849a3.744,3.744,0,0,0,3.74,3.74Z" transform="translate(76.209 105.78) rotate(-178.19)" fill="#263238"></path><path id="Path_6551" data-name="Path 6551" d="M453.46,431.229l-.221,1.671s-2.005,4.011-2.787,4.679a50.669,50.669,0,0,1-6.572,3.117c-.89.334.668,1.355,2.787,1.45a39.719,39.719,0,0,0,7.353-.221c1.337-.334,3.9-2.231,4.458-2.34l.452,1.445s2.453-.9,3.342-1.111a8.674,8.674,0,0,0,2.34-1.355,43.261,43.261,0,0,0-1.78-4.571,8.053,8.053,0,0,0-1.563-2.005L459.6,430Z" transform="translate(-427.525 -295.653)" fill="#263238"></path><path id="Path_6551_-_Outline" data-name="Path 6551 - Outline" d="M459.6,429.5a.5.5,0,0,1,.383.179l1.647,1.964a8.54,8.54,0,0,1,1.637,2.109q.009.017.017.034a43.927,43.927,0,0,1,1.8,4.624.5.5,0,0,1-.165.547,8.755,8.755,0,0,1-2.536,1.45c-.85.2-3.259,1.084-3.283,1.093a.5.5,0,0,1-.65-.32l-.283-.9c-.266.15-.609.36-.909.543a14.134,14.134,0,0,1-3.119,1.592,25.056,25.056,0,0,1-4.6.3c-.982,0-2.036-.022-2.892-.06-1.58-.071-3.371-.692-3.511-1.571a.772.772,0,0,1,.57-.846,51.8,51.8,0,0,0,6.423-3.029,26.292,26.292,0,0,0,2.627-4.448l.21-1.588a.5.5,0,0,1,.4-.425l6.143-1.229A.5.5,0,0,1,459.6,429.5Zm2.782,4.718a7.54,7.54,0,0,0-1.457-1.865.5.5,0,0,1-.042-.044l-1.476-1.76-5.5,1.1-.174,1.317a.5.5,0,0,1-.048.158c-.342.685-2.092,4.137-2.909,4.836a46.339,46.339,0,0,1-6.432,3.091,5.315,5.315,0,0,0,2.344.6c.842.038,1.879.059,2.847.059a23.544,23.544,0,0,0,4.362-.266,14.027,14.027,0,0,0,2.841-1.476,6.958,6.958,0,0,1,1.643-.87.5.5,0,0,1,.572.342l.3.946c.772-.278,2.239-.793,2.908-.949a6.857,6.857,0,0,0,1.867-1.051A42.943,42.943,0,0,0,462.386,434.218Z" transform="translate(-427.525 -295.653)" fill="#263238"></path><path id="Path_6552" data-name="Path 6552" d="M447.4,291.8l-3.677,2.227-8.022,2.34s-25.4,4.679-26.853,6.364-.9,3.121.334,5.24,22.747,49.039,22.747,49.039l8.916-1.784L425.912,310.3s28.081,5.682,32.973,4.788,11.143-6.125,12.254-10.136-4.011-10.389-4.011-10.389Z" transform="translate(-407.98 -219.876)" fill="#4f5b62"></path><path id="Path_6552_-_Outline" data-name="Path 6552 - Outline" d="M447.4,291.3a.5.5,0,0,1,.069,0l19.73,2.76a.5.5,0,0,1,.321.182c.216.269,5.269,6.626,4.1,10.835-.558,2.016-2.334,4.381-4.872,6.488a18.111,18.111,0,0,1-7.774,4.006,8.678,8.678,0,0,1-1.511.1c-6.687,0-26.4-3.848-30.806-4.724l14.661,44.112a.5.5,0,0,1-.376.648l-8.916,1.784a.5.5,0,0,1-.553-.282c-.215-.469-21.513-46.922-22.724-49a8.364,8.364,0,0,1-1.239-2.969,3.468,3.468,0,0,1,.957-2.849c.278-.323,1.016-1.181,14.246-3.977,6.258-1.322,12.426-2.466,12.87-2.548l7.935-2.314,3.621-2.193A.5.5,0,0,1,447.4,291.3Zm19.46,3.727-19.353-2.707-3.525,2.135a.5.5,0,0,1-.119.052l-8.022,2.34-.049.012c-.063.012-6.4,1.181-12.837,2.541-3.777.8-6.85,1.5-9.132,2.1-3.869,1.009-4.5,1.448-4.6,1.559-1.2,1.392-.867,2.514.387,4.661,1.192,2.041,20.46,44.046,22.6,48.724l7.974-1.6-14.754-44.392a.5.5,0,0,1,.574-.648c.241.049,24.168,4.873,31.453,4.873a7.861,7.861,0,0,0,1.331-.087,17.1,17.1,0,0,0,7.315-3.792c2.349-1.951,4.049-4.188,4.547-5.985C471.6,301.423,467.609,296.007,466.858,295.027Z" transform="translate(-407.98 -219.876)" fill="#263238"></path><path id="Path_6553" data-name="Path 6553" d="M440.312,329.359a.5.5,0,0,1-.475-.343c-.93-2.815-6.31-5.439-6.364-5.466a.5.5,0,0,1,.435-.9c.237.114,5.818,2.839,6.879,6.052a.5.5,0,0,1-.475.657Z" transform="translate(-422.077 -237.038)" fill="#263238"></path><path id="Path_6554" data-name="Path 6554" d="M523.655,208.056l-12.033-1.116-17.6,39.888,11.586,2.005Z" transform="translate(-455.157 -173.346)" fill="#fff"></path><path id="Path_6554_-_Outline" data-name="Path 6554 - Outline" d="M511.622,206.44l.046,0,12.033,1.116a.5.5,0,0,1,.411.7l-18.049,40.778a.5.5,0,0,1-.542.29l-11.586-2.005a.5.5,0,0,1-.372-.695l17.6-39.888A.5.5,0,0,1,511.622,206.44Zm11.294,2.049-10.982-1.018-17.2,38.974,10.571,1.83Z" transform="translate(-455.157 -173.346)" fill="#263238"></path><path id="Path_6555" data-name="Path 6555" d="M498.305,207.805s-17.6,35.6-17.832,36.162-5.235,2.005-6.351,2.227-4.792.781-4.792.781l6.242-4.232,4.449-11.477L474.6,228.5s10.027-15.041,12.254-20.168,3.1-6.482,5.325-6.59,8.582.334,8.582.334Z" transform="translate(-441.619 -170.485)" fill="#4f5b62"></path><path id="Path_6555_-_Outline" data-name="Path 6555 - Outline" d="M493.042,201.222c2.659,0,7.7.349,7.755.353a.5.5,0,0,1,.425.7L498.765,208l-.011.025c-6.051,12.238-17.563,35.539-17.819,36.132-.1.237-.332.459-1.2.824-.492.207-1.148.443-1.951.7-1.4.453-2.976.883-3.564,1-1.114.221-4.664.762-4.814.785a.5.5,0,0,1-.356-.908l6.113-4.145,4.23-10.911-5.018-2.564a.5.5,0,0,1-.189-.723c.1-.15,10.028-15.062,12.212-20.089,2.173-5,3.165-6.764,5.76-6.89C492.4,201.228,492.695,201.222,493.042,201.222Zm6.983,1.3c-1.48-.1-4.948-.3-6.983-.3-.331,0-.613.006-.837.017-1.855.091-2.632,1.09-4.891,6.29-2.024,4.66-10.247,17.154-11.986,19.778l4.921,2.514a.5.5,0,0,1,.239.626l-4.449,11.477a.5.5,0,0,1-.186.233l-4.4,2.981c.995-.158,2.059-.333,2.569-.434s1.905-.478,3.256-.908a12.385,12.385,0,0,0,2.759-1.083c.8-1.7,16.015-32.484,17.811-36.117Z" transform="translate(-441.619 -170.485)" fill="#263238"></path><path id="Path_6556" data-name="Path 6556" d="M513.986,229.185l.221,2.566s-11.7,20.945-11.807,21.392a20.854,20.854,0,0,0,.9,3.564l4.124-3.008,7.8-21.5,2.118-1.229V226.99Z" transform="translate(-459.748 -184.34)" fill="#bb002f"></path><path id="Path_6556_-_Outline" data-name="Path 6556 - Outline" d="M517.342,226.49a.5.5,0,0,1,.5.5v3.979a.5.5,0,0,1-.249.433l-1.961,1.137L507.9,253.868a.5.5,0,0,1-.175.234L503.6,257.11a.5.5,0,0,1-.77-.25c0-.008-.258-.8-.5-1.631-.515-1.8-.453-2.053-.416-2.205.031-.129.084-.345,5.993-10.988,2.646-4.766,5.312-9.542,5.789-10.4l-.208-2.413a.5.5,0,0,1,.224-.461l3.356-2.2A.5.5,0,0,1,517.342,226.49Zm-.5,4.191v-2.767l-2.332,1.525.2,2.268a.5.5,0,0,1-.062.287c-4.506,8.067-11.262,20.223-11.752,21.267a18.878,18.878,0,0,0,.679,2.631l3.439-2.508,7.744-21.357a.5.5,0,0,1,.219-.262Z" transform="translate(-459.748 -184.34)" fill="#263238"></path><path id="Path_6557" data-name="Path 6557" d="M530.532,143.244s-4.137,10.018-5.054,13.054-1.563,7.995-1.355,8.546a4.256,4.256,0,0,0,3.492,2.575c2.136.095,3.952.09,3.952.09l-3.216,6.712s.366,5.24.9,5.33,8.641-6.156,8.826-6.436,5.33-11.292,5.33-11.292,4.6-2.3,4.874-4.323a3.2,3.2,0,0,0-1.2-3.031v-2.484l2.024-6.066a39.7,39.7,0,0,0-10.664-4.688c-5.61-1.382-6.8-.452-6.8-.452Z" transform="translate(-471.642 -136.9)" fill="#fff"></path><path id="Path_6557_-_Outline" data-name="Path 6557 - Outline" d="M533.43,139.972h0a22.526,22.526,0,0,1,5.135.773,39.758,39.758,0,0,1,10.818,4.756.5.5,0,0,1,.2.577l-2,5.989v2.169a3.7,3.7,0,0,1,1.192,3.338c-.137.982-1.061,2.077-2.748,3.257a21.613,21.613,0,0,1-2.239,1.359c-1.589,3.4-5.111,10.925-5.294,11.2a8.548,8.548,0,0,1-1.473,1.241c-.845.664-1.895,1.468-2.88,2.207-4.288,3.214-4.657,3.214-4.878,3.214a.577.577,0,0,1-.1-.008c-.432-.073-.616-.535-.774-1.257-.1-.461-.2-1.092-.293-1.875-.158-1.318-.252-2.643-.252-2.656A.5.5,0,0,1,527.9,174l2.875-6c-.734-.008-1.9-.029-3.183-.086a4.758,4.758,0,0,1-3.937-2.9,12.832,12.832,0,0,1,.229-3.591A39.449,39.449,0,0,1,525,156.153c.914-3.024,4.9-12.69,5.071-13.1l.006-.015,1.111-2.466a.5.5,0,0,1,.148-.189A3.537,3.537,0,0,1,533.43,139.972Zm15.081,6.161a39.19,39.19,0,0,0-10.185-4.417,21.578,21.578,0,0,0-4.9-.744h0a4.213,4.213,0,0,0-1.4.175l-1.034,2.3c-.131.317-4.146,10.057-5.035,13a35.942,35.942,0,0,0-1.361,8.239,3.76,3.76,0,0,0,3.041,2.238c1.927.086,3.578.09,3.89.09h.04a.5.5,0,0,1,.451.716l-3.159,6.593a31.673,31.673,0,0,0,.6,4.608c1.517-.881,7.563-5.483,8.215-6.108.33-.63,3.311-6.984,5.284-11.207a.5.5,0,0,1,.229-.236c1.687-.844,4.427-2.661,4.6-3.943l0-.011a2.7,2.7,0,0,0-1.01-2.558.5.5,0,0,1-.193-.395v-2.484a.5.5,0,0,1,.026-.158Z" transform="translate(-471.642 -136.9)" fill="#263238"></path><path id="Path_6558" data-name="Path 6558" d="M539.545,133.3s-8.27-2.209-11.947,1.012,5.881,8.383,9.007,8.835,6.988-.185,6.066.646-2.94,2.114-1.929,2.94a7.476,7.476,0,0,0,2.114,1.192s-4.318,9.485-5.054,10.569a2.529,2.529,0,0,1-2.94.736c-.827-.276-4.779-2.755-6.066-3.216s-3.677-1.838-4.228-.366-1.933,7.719.09,9.1,11.857-2.114,13.329-3.126,1.929-2.85,2.2-3.216,4.228-6.893,4.594-7.353a5.9,5.9,0,0,1,2.024-.9s3.311-6.622,3.586-9.192S542.029,133.213,539.545,133.3Z" transform="translate(-471.372 -132.564)" fill="#263238"></path><path id="Path_6558_-_Outline" data-name="Path 6558 - Outline" d="M533.734,132.064a25.791,25.791,0,0,1,5.87.738h.006a12.7,12.7,0,0,1,5,1.9,21.623,21.623,0,0,1,5.125,3.852,3.383,3.383,0,0,1,1.151,2.461c-.282,2.63-3.5,9.088-3.636,9.362a.5.5,0,0,1-.318.259,5.278,5.278,0,0,0-1.761.731c-.187.235-1.631,2.582-2.686,4.3-1.127,1.831-1.771,2.876-1.9,3.047a4.184,4.184,0,0,0-.2.417,6.448,6.448,0,0,1-2.124,2.91c-1.361.935-8.6,3.531-12.095,3.531a3.2,3.2,0,0,1-1.8-.4c-1.033-.7-1.446-2.375-1.227-4.968a21.061,21.061,0,0,1,.95-4.717,1.5,1.5,0,0,1,1.511-.987,7.424,7.424,0,0,1,2.6.753c.277.116.538.226.755.3a32.836,32.836,0,0,1,3.6,1.89,27.658,27.658,0,0,0,2.461,1.322,2.954,2.954,0,0,0,.91.148,1.647,1.647,0,0,0,1.459-.691c.552-.813,3.467-7.111,4.8-10.021a7.957,7.957,0,0,1-1.755-1.07,1.15,1.15,0,0,1-.464-.911c0-.845.961-1.628,1.808-2.319l.069-.056c-.286-.01-.585-.01-.733-.01-.341,0-.718,0-1.119,0a24.77,24.77,0,0,1-3.457-.189,18.179,18.179,0,0,1-5.65-2.373c-1.436-.872-3.929-2.62-4.5-4.531a2.57,2.57,0,0,1,.881-2.8C528.688,132.695,530.864,132.064,533.734,132.064Zm5.81,1.739a.5.5,0,0,1-.129-.017,25.145,25.145,0,0,0-5.682-.722c-2.621,0-4.575.547-5.807,1.627a1.574,1.574,0,0,0-.581,1.766c.775,2.617,6.884,5.845,9.329,6.2a23.876,23.876,0,0,0,3.314.179c.4,0,.778,0,1.119,0,1.284,0,1.963.024,2.16.537a.7.7,0,0,1-.264.8c-.175.158-.382.326-.6.5-.5.41-1.44,1.174-1.44,1.544,0,.016,0,.057.093.133a6.957,6.957,0,0,0,1.969,1.11.5.5,0,0,1,.283.677c-.177.389-4.344,9.537-5.1,10.643a2.658,2.658,0,0,1-2.286,1.129,3.928,3.928,0,0,1-1.226-.2,23.345,23.345,0,0,1-2.639-1.4,33.8,33.8,0,0,0-3.437-1.818c-.243-.087-.517-.2-.806-.324a6.965,6.965,0,0,0-2.21-.675c-.372,0-.5.135-.574.337a20.259,20.259,0,0,0-.89,4.451c-.181,2.145.1,3.586.794,4.058a2.265,2.265,0,0,0,1.236.231c3.426,0,10.435-2.6,11.528-3.355a5.593,5.593,0,0,0,1.774-2.486,3.277,3.277,0,0,1,.314-.619c.114-.154,1.035-1.65,1.847-2.969,1.529-2.484,2.546-4.132,2.755-4.394a4.94,4.94,0,0,1,2.066-1.014c.546-1.113,3.2-6.615,3.439-8.824.024-.228-.06-.751-.9-1.686-2.257-2.512-7.6-5.418-9.386-5.418Z" transform="translate(-471.372 -132.564)" fill="#263238"></path><path id="Path_6559" data-name="Path 6559" d="M530.945,172.689c-1,0-1.257-.132-1.418-.274a.594.594,0,0,1-.207-.449c0-.235,0-.526,2.276-3.238.866-1.032,1.741-2.029,2.051-2.381l.177-3.889a.5.5,0,0,1,1,.046l-.185,4.065a.5.5,0,0,1-.125.309c-2.006,2.262-3.443,4.029-3.98,4.805a33.1,33.1,0,0,0,4.371-.3.5.5,0,1,1,.124.992c-.012,0-1.186.147-2.4.24C531.906,172.666,531.361,172.689,530.945,172.689Z" transform="translate(-474.787 -148.968)" fill="#263238"></path><path id="Path_6560" data-name="Path 6560" d="M536.244,159.977a.5.5,0,0,1-.445-.272.971.971,0,0,0-1.152-.486.5.5,0,1,1-.294-.956,1.97,1.97,0,0,1,2.336.986.5.5,0,0,1-.445.728Z" transform="translate(-477.353 -146.882)" fill="#263238"></path><path id="Path_6561" data-name="Path 6561" d="M550.4,167.763a.5.5,0,0,1-.463-.311c-.677-1.658-2.954-1.442-2.977-1.44a.5.5,0,1,1-.1-.995,5.269,5.269,0,0,1,1.6.126,3.264,3.264,0,0,1,2.4,1.93.5.5,0,0,1-.463.689Z" transform="translate(-484.158 -150.625)" fill="#263238"></path><path id="Path_6562" data-name="Path 6562" d="M534.952,190.092c-1.685,0-4.112-1.484-4.215-1.547a.5.5,0,0,1,.525-.851h0a9.465,9.465,0,0,0,3.69,1.4.5.5,0,0,1,0,1Z" transform="translate(-475.434 -163.026)" fill="#fff"></path><path id="Path_6563" data-name="Path 6563" d="M547.334,172.848c-.253.5-.714.772-1.03.614s-.37-.7-.117-1.192.714-.772,1.03-.614S547.586,172.351,547.334,172.848Z" transform="translate(-483.674 -153.974)" fill="#263238"></path><path id="Path_6564" data-name="Path 6564" d="M534.594,167.9c-.248.5-.714.772-1.03.61s-.37-.691-.117-1.192.714-.772,1.03-.61S534.847,167.394,534.594,167.9Z" transform="translate(-476.688 -151.257)" fill="#263238"></path><path id="Path_6565" data-name="Path 6565" d="M431.25,424.47l-.781,4.679-1.671.452s-1.563,1.884-1.893,2.335a42.409,42.409,0,0,1-5.569,4.011c-1.111.56-3.9.777-3.79,1.558s6.016,1.45,9.806,1.558a11.943,11.943,0,0,0,5.9-1.111l.334.777,3.9-.334s-.221-3.677-.108-5.235a21.716,21.716,0,0,0-.226-3.79l-.221-3.23Z" transform="translate(-413.224 -292.621)" fill="#263238"></path><path id="Path_6565_-_Outline" data-name="Path 6565 - Outline" d="M431.25,423.97a.5.5,0,0,1,.141.02l5.682,1.671a.5.5,0,0,1,.358.445l.22,3.21a22.279,22.279,0,0,1,.228,3.857c0,.007,0,.015,0,.022-.109,1.508.107,5.132.109,5.169a.5.5,0,0,1-.456.528l-3.9.334a.5.5,0,0,1-.5-.3l-.129-.3a13.287,13.287,0,0,1-5.175.942c-.161,0-.326,0-.489-.007a61.266,61.266,0,0,1-6.338-.532,21.064,21.064,0,0,1-2.541-.487c-.686-.19-1.332-.439-1.408-.968-.068-.474.24-.854.917-1.132a12.138,12.138,0,0,1,1.547-.455,9.04,9.04,0,0,0,1.6-.49,44.6,44.6,0,0,0,5.393-3.863c.34-.464,1.845-2.279,1.909-2.356a.5.5,0,0,1,.254-.163l1.361-.368.729-4.363a.5.5,0,0,1,.493-.418Zm5.207,2.553-4.807-1.414-.688,4.123a.5.5,0,0,1-.363.4l-1.518.41c-.35.423-1.5,1.82-1.772,2.189a40.6,40.6,0,0,1-5.748,4.163,9.532,9.532,0,0,1-1.8.567,11.039,11.039,0,0,0-1.527.458,15.03,15.03,0,0,0,3.282.674c1.8.239,4.044.419,5.854.471.153,0,.308.007.46.007a11.339,11.339,0,0,0,5.18-1.052.5.5,0,0,1,.708.236l.192.445,3.055-.262c-.056-1.057-.171-3.552-.082-4.8a21.277,21.277,0,0,0-.221-3.691q0-.019,0-.039Z" transform="translate(-413.224 -292.621)" fill="#263238"></path><path id="Path_6566" data-name="Path 6566" d="M473.383,303.39s-31.645,3.9-32.313,4.679-.113,23.844-.113,23.844l-3.677,26.993,11.364,3.478s3.568-22.76,4.792-28.908a132.361,132.361,0,0,0,1.784-13.817s17.494,4.011,23.488.668,4.788-7.466,4.788-7.466" transform="translate(-424.046 -226.231)" fill="#4f5b62"></path><path id="Path_6566_-_Outline" data-name="Path 6566 - Outline" d="M448.644,362.884a.5.5,0,0,1-.146-.022l-11.364-3.478a.5.5,0,0,1-.349-.546l3.671-26.953c-.012-.524-.141-6.05-.193-11.6-.112-11.914.212-12.294.427-12.545.172-.2.35-.409,5.634-1.23,2.711-.421,6.441-.95,11.087-1.573,7.906-1.06,15.832-2.038,15.911-2.047a.5.5,0,0,1,.122.992c-.076.009-7.731.953-15.492,1.991-13,1.738-15.882,2.346-16.483,2.55-.112.529-.3,2.8-.2,12.183.057,5.678.19,11.236.191,11.292a.5.5,0,0,1,0,.08l-3.619,26.571,10.407,3.185c.562-3.567,3.6-22.808,4.706-28.355a132.4,132.4,0,0,0,1.777-13.761.5.5,0,0,1,.61-.45c.173.04,17.38,3.927,23.132.719,5.581-3.112,4.562-6.852,4.551-6.889a.5.5,0,1,1,.96-.281,5.157,5.157,0,0,1-.148,2.768c-.436,1.409-1.635,3.468-4.876,5.276-2.577,1.437-7.379,1.767-14.273.981-4.081-.465-7.656-1.186-9-1.475a133.416,133.416,0,0,1-1.746,13.3v.008c-1.208,6.067-4.753,28.66-4.789,28.888a.5.5,0,0,1-.494.423Z" transform="translate(-424.046 -226.231)" fill="#263238"></path><path id="Path_6567" data-name="Path 6567" d="M446.76,352.977a.5.5,0,0,1-.489-.609c.014-.064,1.437-6.484,1.715-9.869a.5.5,0,1,1,1,.082,100.489,100.489,0,0,1-1.736,10A.5.5,0,0,1,446.76,352.977Z" transform="translate(-429.244 -247.698)" fill="#263238"></path><path id="Path_6568" data-name="Path 6568" d="M470.3,330.212a.5.5,0,0,1-.4-.2,4.95,4.95,0,0,0-1.112-1.083.5.5,0,1,1,.577-.817,5.947,5.947,0,0,1,1.336,1.3.5.5,0,0,1-.4.8Z" transform="translate(-441.482 -240.01)" fill="#263238"></path><path id="Path_6569" data-name="Path 6569" d="M475.2,336.845a.5.5,0,0,1-.446-.273c-.006-.012-.64-1.247-1.453-2.476a.5.5,0,0,1,.834-.552,29.68,29.68,0,0,1,1.51,2.573.5.5,0,0,1-.445.728Z" transform="translate(-444.027 -242.916)" fill="#263238"></path><path id="Path_6570" data-name="Path 6570" d="M530.437,204.72S517.844,227.882,515.17,233.8s-6.256,14.151-6.256,15.041-2.34,23.736-1.558,24.179,12.475-3.342,17.936-5.456,5.682-3.677,6.129-4.905.334-17.047.334-17.047,11.364-32.313,11.251-33.759S530.437,204.72,530.437,204.72Z" transform="translate(-462.382 -172.129)" fill="#4f5b62"></path><path id="Path_6570_-_Outline" data-name="Path 6570 - Outline" d="M530.437,204.22a.5.5,0,0,1,.207.045c.031.014,3.161,1.445,6.263,3.034,1.829.937,3.293,1.746,4.352,2.4,1.816,1.129,2.211,1.66,2.246,2.11.023.3.079,1.006-5.609,17.622-2.644,7.725-5.333,15.385-5.641,16.259,0,.605.025,4.252,0,7.982-.056,8.3-.28,8.919-.365,9.152-.027.076-.054.152-.081.23a4.925,4.925,0,0,1-1.39,2.239,15.552,15.552,0,0,1-4.948,2.731c-4.824,1.867-15.914,5.526-17.9,5.526a.925.925,0,0,1-.468-.1c-.291-.165-.363-.515-.4-1.1-.022-.407-.023-.987,0-1.725.036-1.285.14-3.114.309-5.434.306-4.216.766-9.262,1.07-12.6.174-1.91.324-3.56.324-3.75,0-.212,0-.709,2.165-5.83,1.1-2.61,2.61-6.042,4.136-9.417,2.651-5.866,15.157-28.88,15.283-29.112A.5.5,0,0,1,530.437,204.22Zm12.068,7.692a6.7,6.7,0,0,0-2.02-1.511c-1.056-.642-2.485-1.423-4.247-2.321-2.341-1.193-4.658-2.28-5.586-2.71-1.7,3.137-12.587,23.235-15.027,28.635-3.5,7.734-6.164,14.11-6.211,14.839,0,.235-.108,1.416-.329,3.837-.29,3.184-.728,7.995-1.033,12.1a59.86,59.86,0,0,0-.325,7.769c2.007-.173,11.969-3.355,17.384-5.451,4.9-1.9,5.373-3.265,5.754-4.365.029-.083.057-.165.086-.245.075-.213.256-1.5.3-8.83.027-4.053,0-8,0-8.042a.5.5,0,0,1,.028-.169c.028-.08,2.833-8.058,5.607-16.16C541.777,215.019,542.46,212.363,542.506,211.912Z" transform="translate(-462.382 -172.129)" fill="#263238"></path><path id="Path_6571" data-name="Path 6571" d="M529.05,260.632a.5.5,0,0,1-.328-.877c.017-.015,1.748-1.523,3.777-3.512a.5.5,0,0,1,.7.714c-2.051,2.011-3.8,3.537-3.821,3.552A.5.5,0,0,1,529.05,260.632Z" transform="translate(-474.365 -200.575)" fill="#263238"></path><path id="Path_6572" data-name="Path 6572" d="M540.15,230.543a.5.5,0,0,1-.351-.856,37.643,37.643,0,0,0,4.39-5.2c2.635-4.06,7.831-14.223,7.883-14.325a.5.5,0,0,1,.891.455c-.052.1-5.278,10.324-7.939,14.422l-.01.014A38.636,38.636,0,0,1,540.5,230.4.5.5,0,0,1,540.15,230.543Z" transform="translate(-480.451 -175.237)" fill="#263238"></path><path id="Path_6573" data-name="Path 6573" d="M510.791,228.669a.506.506,0,0,1-.06,0,.5.5,0,0,1-.437-.556,56.953,56.953,0,0,1,1.914-8.211c1.563-5.348,6.811-14.153,7.034-14.525a.5.5,0,0,1,.858.513c-.054.09-5.405,9.068-6.932,14.292a57.329,57.329,0,0,0-1.881,8.05A.5.5,0,0,1,510.791,228.669Z" transform="translate(-464.353 -172.627)" fill="#263238"></path><path id="Path_6574" data-name="Path 6574" d="M529.458,235.259a.5.5,0,0,1-.5-.487l-.176-6.881-4.4,2.83a.5.5,0,1,1-.541-.841l5.149-3.311a.5.5,0,0,1,.77.408l.2,7.769a.5.5,0,0,1-.487.513Z" transform="translate(-471.656 -184.34)" fill="#263238"></path><path id="Line_770" data-name="Line 770" d="M0,.771A.5.5,0,0,1-.494.349.5.5,0,0,1-.078-.223L1.643-.494a.5.5,0,0,1,.572.416A.5.5,0,0,1,1.8.494L.078.765A.5.5,0,0,1,0,.771Z" transform="translate(63.439 80.502)" fill="#263238"></path><path id="Path_6575" data-name="Path 6575" d="M524.11,310.861a.5.5,0,0,1-.5-.5V307.8a.5.5,0,0,1,.441-.5l12.146-1.45a.5.5,0,0,1,.119.993l-11.705,1.4v1.532L532.7,308.5a.5.5,0,0,1,.156.988l-8.672,1.369A.5.5,0,0,1,524.11,310.861Z" transform="translate(-471.656 -227.854)" fill="#263238"></path><path id="Path_6576" data-name="Path 6576" d="M513.51,208.031s2.005-4.232,3.008-4.345,3.23,0,3.23.9-1.224,1-1.224,1h-1.671l-.781,2.005Z" transform="translate(-465.844 -171.542)" fill="#fff"></path><path id="Path_6576_-_Outline" data-name="Path 6576 - Outline" d="M513.51,208.531a.5.5,0,0,1-.452-.714c.021-.044.518-1.09,1.148-2.168,1.216-2.08,1.823-2.411,2.256-2.459a7.12,7.12,0,0,1,.777-.039c1.912,0,3.009.525,3.009,1.439,0,1.079-1.1,1.454-1.684,1.5l-.04,0h-1.329l-.657,1.687a.5.5,0,0,1-.382.311l-2.561.434A.5.5,0,0,1,513.51,208.531Zm3.071-4.349c-.043.015-.487.2-1.552,2.041-.236.408-.454.812-.63,1.15l1.309-.222.678-1.741a.5.5,0,0,1,.466-.318H518.5c.106-.013.75-.107.75-.5,0-.1-.626-.439-2.009-.439A6.233,6.233,0,0,0,516.581,204.182Z" transform="translate(-465.844 -171.542)" fill="#263238"></path><path id="Path_6577" data-name="Path 6577" d="M506.139,220.8l.781-4.345s.334-3.785.9-4.011a49.845,49.845,0,0,1,5.682-.108s.113,4.454-.334,5.569-2.453,1.558-2.453,1.558a9.84,9.84,0,0,1-.777,2.005,5.538,5.538,0,0,1-1.563,1l-.334.9-2.9-1.9Z" transform="translate(-461.26 -176.286)" fill="#fff"></path><path id="Path_6577_-_Outline" data-name="Path 6577 - Outline" d="M508.045,223.872a.5.5,0,0,1-.274-.082l-2.9-1.9a.5.5,0,0,1-.009-.831l.817-.559.741-4.118c.014-.154.1-1.024.24-1.932.295-1.857.591-2.325.974-2.477.143-.057.439-.174,3.16-.174,1.368,0,2.705.03,2.719.031a.5.5,0,0,1,.488.487c.012.466.1,4.591-.37,5.768a3.859,3.859,0,0,1-2.513,1.784,10.363,10.363,0,0,1-.737,1.824.5.5,0,0,1-.042.067,4.911,4.911,0,0,1-1.567,1.072l-.263.711a.5.5,0,0,1-.469.326Zm-2-2.406,1.746,1.144.116-.315a.5.5,0,0,1,.264-.283,5.176,5.176,0,0,0,1.345-.819,9.356,9.356,0,0,0,.716-1.862.5.5,0,0,1,.375-.36c.453-.1,1.813-.55,2.1-1.256a21.833,21.833,0,0,0,.308-4.893c-.509-.009-1.357-.021-2.216-.021a21.4,21.4,0,0,0-2.729.092,15,15,0,0,0-.651,3.6c0,.015,0,.03-.006.044l-.781,4.345a.5.5,0,0,1-.21.324Z" transform="translate(-461.26 -176.286)" fill="#263238"></path><path id="Path_6578" data-name="Path 6578" d="M516.776,225.451l-.556-2.118,2.118-.113" transform="translate(-467.33 -182.272)" fill="#fff"></path><path id="Path_6578_-_Outline" data-name="Path 6578 - Outline" d="M516.775,225.951a.5.5,0,0,1-.483-.373l-.556-2.118a.5.5,0,0,1,.457-.626l2.118-.113a.5.5,0,0,1,.053,1l-1.506.08.4,1.525a.5.5,0,0,1-.484.627Z" transform="translate(-467.33 -182.272)" fill="#263238"></path><path id="Path_6579" data-name="Path 6579" d="M503.521,230.38l4.571,3.23-1.784,1.893-3.9-3.564Z" transform="translate(-459.758 -186.198)" fill="#fff"></path><path id="Path_6579_-_Outline" data-name="Path 6579 - Outline" d="M503.522,229.88a.5.5,0,0,1,.288.092l4.571,3.23a.5.5,0,0,1,.075.751l-1.784,1.893a.5.5,0,0,1-.7.026l-3.9-3.564a.5.5,0,0,1-.07-.659l1.111-1.558A.5.5,0,0,1,503.522,229.88Zm3.812,3.806-3.694-2.61-.565.792,3.208,2.933Z" transform="translate(-459.758 -186.198)" fill="#263238"></path><path id="Path_6580" data-name="Path 6580" d="M487.8,233.83l5.235,3.9L483.01,252.995a6.631,6.631,0,0,1-3.564-.226c-1.9-.669-3.677-4.454-3.677-4.9S487.8,233.83,487.8,233.83Z" transform="translate(-445.151 -188.09)" fill="#4f5b62"></path><path id="Path_6580_-_Outline" data-name="Path 6580 - Outline" d="M487.8,233.33a.5.5,0,0,1,.3.1l5.235,3.9a.5.5,0,0,1,.119.676l-10.027,15.267a.5.5,0,0,1-.314.215,7.131,7.131,0,0,1-3.832-.243,6.569,6.569,0,0,1-2.808-2.739,8.333,8.333,0,0,1-1.2-2.633c0-.231,0-.336,2-2.7,1-1.185,2.393-2.8,4.141-4.811,2.975-3.416,5.989-6.821,6.019-6.855A.5.5,0,0,1,487.8,233.33Zm4.558,4.518-4.488-3.342c-4.427,5-10.8,12.3-11.577,13.442.239.783,1.833,3.827,3.317,4.351a6.13,6.13,0,0,0,3.1.247Z" transform="translate(-445.151 -188.09)" fill="#263238"></path><path id="Path_6581" data-name="Path 6581" d="M481.209,260.867a24.368,24.368,0,0,1-1.784-4.011c-.113-.89-.221-2.674-.781-3.342a4.767,4.767,0,0,1-1.445-2.118c-.221-1-1.229-.556-1.355.452a3,3,0,0,0,.777,2.005s-2.782-.9-3.229-.669-1.355.556-1.116,1.355a9.356,9.356,0,0,0,.565,1.427s-1.78,2.34-1.78,3.451a5.954,5.954,0,0,0,2.118,3.568,16.675,16.675,0,0,0,4.011,1.355Z" transform="translate(-442.568 -197.412)" fill="#fff"></path><path id="Path_6581_-_Outline" data-name="Path 6581 - Outline" d="M477.189,264.84a.5.5,0,0,1-.108-.012,16.122,16.122,0,0,1-4.2-1.443c-.923-.69-2.319-2.625-2.319-3.969,0-1.054,1.183-2.8,1.7-3.508a9.888,9.888,0,0,1-.463-1.225,1.249,1.249,0,0,1,.342-1.313,3.152,3.152,0,0,1,.858-.549c.058-.028.113-.055.162-.081a.989.989,0,0,1,.472-.1,8.96,8.96,0,0,1,1.9.362,2.511,2.511,0,0,1-.182-1.222,1.512,1.512,0,0,1,1.327-1.454,1.068,1.068,0,0,1,1.013.957,2.891,2.891,0,0,0,.9,1.419c.145.153.3.31.443.486a6.7,6.7,0,0,1,.843,3.15c.018.164.035.32.052.45a22.129,22.129,0,0,0,1.729,3.838.5.5,0,0,1-.114.614l-4.02,3.473A.5.5,0,0,1,477.189,264.84Zm-3.6-11.194-.15.074c-.663.324-.744.464-.681.675a8.874,8.874,0,0,0,.534,1.349.5.5,0,0,1-.05.524,8.638,8.638,0,0,0-1.678,3.148,5.5,5.5,0,0,0,1.918,3.168,14.352,14.352,0,0,0,3.576,1.212l3.527-3.048a19.211,19.211,0,0,1-1.652-3.83c-.018-.139-.035-.3-.054-.467a6.649,6.649,0,0,0-.615-2.617c-.127-.151-.26-.291-.4-.438a3.83,3.83,0,0,1-1.15-1.893.522.522,0,0,0-.06-.165.746.746,0,0,0-.311.571,2.529,2.529,0,0,0,.652,1.608.5.5,0,0,1-.525.811,15.111,15.111,0,0,0-2.836-.683Z" transform="translate(-442.568 -197.412)" fill="#263238"></path><path id="Path_6582" data-name="Path 6582" d="M519.039,222.29l-10.086,20.922-24.626,1.355a3.478,3.478,0,0,0-2.561,2.561,11.1,11.1,0,0,0-.334,3.121s16.378,2.005,21.5,2.34,11.364,1,12.146.221,10.027-19.942,10.027-19.942" transform="translate(-448.251 -181.762)" fill="#4f5b62"></path><path id="Path_6582_-_Outline" data-name="Path 6582 - Outline" d="M512.644,253.675c-.229,0-.477,0-.746-.009-1.669-.039-3.741-.194-5.934-.358-1.016-.076-2.067-.154-3.06-.219-2.658-.173-8.373-.8-12.7-1.3-2.447-.281-4.719-.55-6.193-.726l-1.926-.232-.667-.081a.5.5,0,0,1-.486-.484h0a11.591,11.591,0,0,1,.349-3.26,3.963,3.963,0,0,1,2.929-2.926.5.5,0,0,1,.09-.013l24.331-1.339,9.958-20.656a.5.5,0,1,1,.9.434L509.4,243.429a.5.5,0,0,1-.423.282L484.4,245.064a2.966,2.966,0,0,0-2.15,2.182v.005a10.588,10.588,0,0,0-.326,2.555c2.623.319,16.4,1.982,21.044,2.284,1,.065,2.051.144,3.07.22,2.136.16,4.154.31,5.783.353,2.316.061,2.808-.138,2.908-.208.657-.794,6.29-12.26,9.93-19.8a.5.5,0,0,1,.9.435c-.023.048-2.34,4.848-4.722,9.682-4.855,9.85-5.238,10.233-5.4,10.4C515.13,253.469,514.515,253.675,512.644,253.675Z" transform="translate(-448.251 -181.762)" fill="#263238"></path></g><g id="freepik--character-1--inject-2" transform="translate(127.243 83.954)"><rect id="Rectangle_1089" data-name="Rectangle 1089" width="2.575" height="24.806" transform="translate(33.668 101.222)" fill="#263238"></rect><path id="Rectangle_1089_-_Outline" data-name="Rectangle 1089 - Outline" d="M0-.5H2.575a.5.5,0,0,1,.5.5V24.806a.5.5,0,0,1-.5.5H0a.5.5,0,0,1-.5-.5V0A.5.5,0,0,1,0-.5ZM2.075.5H.5V24.306H2.075Z" transform="translate(33.668 101.222)" fill="#263238"></path><rect id="Rectangle_1090" data-name="Rectangle 1090" width="4.571" height="24.806" transform="translate(16.015 77.986) rotate(-6.67)" fill="#263238"></rect><path id="Rectangle_1090_-_Outline" data-name="Rectangle 1090 - Outline" d="M0-.5H4.571a.5.5,0,0,1,.5.5V24.806a.5.5,0,0,1-.5.5H0a.5.5,0,0,1-.5-.5V0A.5.5,0,0,1,0-.5ZM4.071.5H.5V24.306H4.071Z" transform="translate(16.015 77.986) rotate(-6.67)" fill="#263238"></path><path id="Path_6583" data-name="Path 6583" d="M203.089,410.593V406.41h-6.536v4.219L170.41,421.121v4.95h1.784v-3.763l27.72-6.31,26.988,6.31v3.763h1.734v-4.95Z" transform="translate(-164.863 -283.552)" fill="#8c8c8c"></path><path id="Path_6583_-_Outline" data-name="Path 6583 - Outline" d="M196.553,405.91h6.536a.5.5,0,0,1,.5.5v3.848l25.238,10.4a.5.5,0,0,1,.309.462v4.95a.5.5,0,0,1-.5.5H226.9a.5.5,0,0,1-.5-.5v-3.366l-26.49-6.193-27.218,6.2v3.364a.5.5,0,0,1-.5.5H170.41a.5.5,0,0,1-.5-.5v-4.95a.5.5,0,0,1,.314-.464l25.83-10.367V406.41A.5.5,0,0,1,196.553,405.91Zm6.036,1h-5.536v3.719a.5.5,0,0,1-.314.464l-25.83,10.367v4.112h.784v-3.263a.5.5,0,0,1,.389-.488l27.72-6.31a.5.5,0,0,1,.225,0l26.988,6.31a.5.5,0,0,1,.386.487v3.263h.734v-4.116l-25.238-10.4a.5.5,0,0,1-.309-.462Z" transform="translate(-164.863 -283.552)" fill="#263238"></path><rect id="Rectangle_1091" data-name="Rectangle 1091" width="12.873" height="7.923" transform="translate(28.519 101.222)" fill="#263238"></rect><path id="Rectangle_1091_-_Outline" data-name="Rectangle 1091 - Outline" d="M0-.5H12.873a.5.5,0,0,1,.5.5V7.923a.5.5,0,0,1-.5.5H0a.5.5,0,0,1-.5-.5V0A.5.5,0,0,1,0-.5ZM12.373.5H.5V7.423H12.373Z" transform="translate(28.519 101.222)" fill="#263238"></path><path id="Path_6584" data-name="Path 6584" d="M163.677,447.013a2.773,2.773,0,1,0-2.773,2.773A2.773,2.773,0,0,0,163.677,447.013Z" transform="translate(-158.13 -304.295)" fill="#263238"></path><path id="Path_6584_-_Outline" data-name="Path 6584 - Outline" d="M160.9,443.74a3.273,3.273,0,1,1,0,6.547h0a3.273,3.273,0,0,1,0-6.547Zm0,5.547a2.273,2.273,0,1,0-2.273-2.273A2.258,2.258,0,0,0,160.9,449.287Z" transform="translate(-158.13 -304.295)" fill="#263238"></path><path id="Path_6585" data-name="Path 6585" d="M164.016,448.938a1.188,1.188,0,1,0-1.188,1.188A1.188,1.188,0,0,0,164.016,448.938Z" transform="translate(-160.055 -306.22)" fill="#fff"></path><path id="Path_6585_-_Outline" data-name="Path 6585 - Outline" d="M162.828,447.25a1.688,1.688,0,1,1-1.688,1.688A1.69,1.69,0,0,1,162.828,447.25Zm0,2.376a.688.688,0,1,0-.688-.688A.689.689,0,0,0,162.828,449.626Z" transform="translate(-160.055 -306.22)" fill="#263238"></path><path id="Path_6586" data-name="Path 6586" d="M305.267,447.013a2.773,2.773,0,1,0-2.773,2.773A2.773,2.773,0,0,0,305.267,447.013Z" transform="translate(-235.766 -304.295)" fill="#263238"></path><path id="Path_6586_-_Outline" data-name="Path 6586 - Outline" d="M302.493,443.74a3.273,3.273,0,0,1,0,6.547h0a3.273,3.273,0,0,1,0-6.547Zm0,5.547a2.273,2.273,0,1,0-2.273-2.273A2.258,2.258,0,0,0,302.493,449.287Z" transform="translate(-235.766 -304.295)" fill="#263238"></path><circle id="Ellipse_204" data-name="Ellipse 204" cx="1.188" cy="1.188" r="1.188" transform="translate(65.557 141.53)" fill="#fff"></circle><path id="Ellipse_204_-_Outline" data-name="Ellipse 204 - Outline" d="M1.188-.5A1.688,1.688,0,1,1-.5,1.188,1.69,1.69,0,0,1,1.188-.5Zm0,2.376A.688.688,0,1,0,.5,1.188.689.689,0,0,0,1.188,1.876Z" transform="translate(65.557 141.53)" fill="#263238"></path><path id="Path_6587" data-name="Path 6587" d="M234.186,432.226h-2.177L230.92,417.37h4.359Z" transform="translate(-198.042 -289.562)" fill="#8c8c8c"></path><path id="Path_6587_-_Outline" data-name="Path 6587 - Outline" d="M234.186,432.726h-2.177a.5.5,0,0,1-.5-.463l-1.089-14.856a.5.5,0,0,1,.5-.537h4.359a.5.5,0,0,1,.5.537l-1.093,14.856A.5.5,0,0,1,234.186,432.726Zm-1.712-1h1.248l1.02-13.856h-3.283Z" transform="translate(-198.042 -289.562)" fill="#263238"></path><rect id="Rectangle_1092" data-name="Rectangle 1092" width="2.177" height="6.138" transform="translate(33.867 139.493)" fill="#263238"></rect><path id="Rectangle_1092_-_Outline" data-name="Rectangle 1092 - Outline" d="M0-.5H2.177a.5.5,0,0,1,.5.5V6.138a.5.5,0,0,1-.5.5H0a.5.5,0,0,1-.5-.5V0A.5.5,0,0,1,0-.5ZM1.677.5H.5V5.638H1.677Z" transform="translate(33.867 139.493)" fill="#263238"></path><path id="Path_6588" data-name="Path 6588" d="M180.94,271.339h0a9.716,9.716,0,0,1-10.606-8.74l-3.04-31.618a9.716,9.716,0,0,1,8.74-10.606h0a9.725,9.725,0,0,1,10.606,8.745l3.04,31.618a9.716,9.716,0,0,1-8.74,10.6Z" transform="translate(-163.13 -181.522)" fill="#8c8c8c"></path><path id="Path_6588_-_Outline" data-name="Path 6588 - Outline" d="M179.994,271.885a10.217,10.217,0,0,1-10.157-9.238l-3.04-31.618a10.216,10.216,0,0,1,9.19-11.151c.327-.031.659-.047.985-.047a10.226,10.226,0,0,1,10.166,9.241l3.04,31.618a10.228,10.228,0,0,1-9.19,11.147C180.658,271.868,180.324,271.885,179.994,271.885Zm-3.022-51.054c-.295,0-.594.014-.89.043a9.216,9.216,0,0,0-8.29,10.06l3.04,31.618a9.174,9.174,0,0,0,9.162,8.334c.3,0,.6-.015.9-.043a9.226,9.226,0,0,0,8.29-10.055l-3.04-31.618A9.184,9.184,0,0,0,176.972,220.831Z" transform="translate(-163.13 -181.522)" fill="#263238"></path><path id="Path_6589" data-name="Path 6589" d="M186.043,270.881h0a9.72,9.72,0,0,1-10.606-8.74l-3.04-31.618a9.72,9.72,0,0,1,8.74-10.578h0a9.72,9.72,0,0,1,10.605,8.745l3.035,31.586A9.72,9.72,0,0,1,186.043,270.881Z" transform="translate(-165.93 -181.286)" fill="#8c8c8c"></path><path id="Path_6589_-_Outline" data-name="Path 6589 - Outline" d="M185.1,271.427a10.221,10.221,0,0,1-10.161-9.237l-3.04-31.618a10.22,10.22,0,0,1,9.19-11.124c.329-.032.662-.048.99-.048a10.221,10.221,0,0,1,10.162,9.242l3.035,31.586a10.22,10.22,0,0,1-9.185,11.151C185.763,271.411,185.43,271.427,185.1,271.427ZM182.08,220.4c-.3,0-.6.014-.894.043a9.237,9.237,0,0,0-8.29,10.034l3.04,31.616a9.18,9.18,0,0,0,9.166,8.333c.3,0,.6-.014.894-.043a9.232,9.232,0,0,0,8.286-10.06l-3.035-31.586A9.179,9.179,0,0,0,182.08,220.4Z" transform="translate(-165.93 -181.286)" fill="#263238"></path><path id="Path_6590" data-name="Path 6590" d="M240.115,350.543l-46.9,1.192a1.915,1.915,0,0,1-1.974-1.856L191,342.625a1.915,1.915,0,0,1,1.852-1.974l46.93-1.192a1.911,1.911,0,0,1,1.974,1.852l.23,7.259a1.915,1.915,0,0,1-1.87,1.974Z" transform="translate(-176.152 -246.841)" fill="#8c8c8c"></path><path id="Path_6590_-_Outline" data-name="Path 6590 - Outline" d="M193.156,352.236a2.4,2.4,0,0,1-2.413-2.342l-.244-7.252a2.419,2.419,0,0,1,2.335-2.49l46.933-1.193h.077a2.4,2.4,0,0,1,1.649.653,2.427,2.427,0,0,1,.76,1.685l.23,7.258a2.415,2.415,0,0,1-2.358,2.49l-46.9,1.192Zm46.689-12.279H239.8l-46.934,1.193a1.416,1.416,0,0,0-1.365,1.458l.244,7.253a1.41,1.41,0,0,0,1.459,1.373l46.9-1.193a1.415,1.415,0,0,0,1.383-1.458l-.23-7.258a1.421,1.421,0,0,0-.445-.987A1.406,1.406,0,0,0,239.845,339.958Z" transform="translate(-176.152 -246.841)" fill="#263238"></path><rect id="Rectangle_1093" data-name="Rectangle 1093" width="30.227" height="11.089" rx="4.24" transform="translate(14.807 93.867) rotate(-1.81)" fill="#8c8c8c"></rect><path id="Rectangle_1093_-_Outline" data-name="Rectangle 1093 - Outline" d="M4.24-.5H25.987a4.745,4.745,0,0,1,4.74,4.74V6.849a4.745,4.745,0,0,1-4.74,4.74H4.24A4.745,4.745,0,0,1-.5,6.849V4.24A4.745,4.745,0,0,1,4.24-.5ZM25.987,10.589a3.744,3.744,0,0,0,3.74-3.74V4.24A3.744,3.744,0,0,0,25.987.5H4.24A3.744,3.744,0,0,0,.5,4.24V6.849a3.744,3.744,0,0,0,3.74,3.74Z" transform="translate(14.807 93.867) rotate(-1.81)" fill="#263238"></path><path id="Path_6591" data-name="Path 6591" d="M301.842,331.29s.4,7.751,1.468,14.693,2.832,28,2.832,28a34.327,34.327,0,0,0,2.258,6.143,15.894,15.894,0,0,0,2.4,3.613s3.473,3.473,3.338,4.006-2.313.479-4.449.077a7.606,7.606,0,0,1-3.776-1.712,29.225,29.225,0,0,0-5.136-2.258,1.928,1.928,0,0,1-1.2-2.665c.4-1.2,1.739-4.006,1.739-5.741s-1.07-9.964-4-15.443-4.675-14.96-4.675-14.96Z" transform="translate(-231.89 -242.363)" fill="#fff"></path><path id="Path_6591_-_Outline" data-name="Path 6591 - Outline" d="M301.842,330.79a.5.5,0,0,1,.5.474c0,.077.413,7.807,1.463,14.643,1.033,6.729,2.741,26.914,2.832,27.995a33.911,33.911,0,0,0,2.215,6.012,15.39,15.39,0,0,0,2.317,3.488c.105.106.927.934,1.725,1.809,1.745,1.917,1.819,2.326,1.733,2.663-.173.679-1.154.766-1.989.766a17.447,17.447,0,0,1-3.037-.321,7.266,7.266,0,0,1-3.472-1.45c-.154-.108-.314-.22-.49-.339a28.952,28.952,0,0,0-5.02-2.2,2.419,2.419,0,0,1-1.508-3.3c.1-.31.262-.708.444-1.17a14.831,14.831,0,0,0,1.269-4.412c0-1.595-1.028-9.759-3.938-15.207-2.93-5.484-4.654-14.714-4.726-15.1a.5.5,0,0,1,.076-.368l9.192-13.758A.5.5,0,0,1,301.842,330.79Zm11.7,56.775a31.619,31.619,0,0,0-3.092-3.467l-.021-.022a16.393,16.393,0,0,1-2.479-3.727,34.912,34.912,0,0,1-2.292-6.233.5.5,0,0,1-.015-.085c-.018-.21-1.777-21.124-2.828-27.97-.781-5.087-1.21-10.661-1.382-13.258l-8.254,12.354c.27,1.386,1.961,9.7,4.586,14.617a37.166,37.166,0,0,1,3.144,9.257,38.427,38.427,0,0,1,.912,6.422,15.378,15.378,0,0,1-1.339,4.781c-.177.448-.331.835-.426,1.119a1.466,1.466,0,0,0,.886,2.034A29.252,29.252,0,0,1,306.2,385.7c.185.124.348.239.506.35a6.314,6.314,0,0,0,3.083,1.285,16.416,16.416,0,0,0,2.852.3A4.187,4.187,0,0,0,313.542,387.565Z" transform="translate(-231.89 -242.363)" fill="#263238"></path><path id="Path_6592" data-name="Path 6592" d="M310.817,440.22a28.848,28.848,0,0,1-2.322-2.01c-.253.646-.488,1.215-.619,1.608a1.929,1.929,0,0,0,1.2,2.665,28.385,28.385,0,0,1,5.136,2.258,7.568,7.568,0,0,0,3.776,1.712c2.136.4,4.318.452,4.449-.077s-3.338-4.006-3.338-4.006l-1.734.8A21.877,21.877,0,0,1,310.817,440.22Z" transform="translate(-240.156 -300.989)" fill="#bb002f"></path><path id="Path_6592_-_Outline" data-name="Path 6592 - Outline" d="M308.5,437.71a.5.5,0,0,1,.348.141,28.432,28.432,0,0,0,2.281,1.975,20.845,20.845,0,0,0,6.194,2.818l1.568-.727a.5.5,0,0,1,.564.1c.009.009.885.888,1.734,1.822,1.743,1.916,1.818,2.324,1.735,2.658-.169.68-1.154.767-1.994.767a17.4,17.4,0,0,1-3.033-.319,7.272,7.272,0,0,1-3.486-1.457c-.151-.106-.306-.216-.478-.332a27.487,27.487,0,0,0-5.016-2.2,2.393,2.393,0,0,1-1.5-1.31,2.765,2.765,0,0,1-.014-1.987c.1-.3.254-.687.431-1.135.063-.159.129-.325.2-.5a.5.5,0,0,1,.466-.318Zm8.867,5.964a.5.5,0,0,1-.127-.016,22.1,22.1,0,0,1-6.725-3.043c-.621-.482-1.241-1.006-1.82-1.536-.141.355-.26.663-.339.9a1.461,1.461,0,0,0,.883,2.033,28.427,28.427,0,0,1,5.255,2.318c.179.121.339.234.493.342a6.32,6.32,0,0,0,3.1,1.292,16.37,16.37,0,0,0,2.848.3,4.265,4.265,0,0,0,.906-.074,30.257,30.257,0,0,0-2.844-3.219l-1.416.656A.5.5,0,0,1,317.362,443.674Z" transform="translate(-240.156 -300.989)" fill="#263238"></path><path id="Path_6593" data-name="Path 6593" d="M198.659,293.418s-1.2,4.707-.547,7.679,5.145,9.847,12.914,11.491,27.3,1.107,27.3,1.107a50.751,50.751,0,0,0-6.459,15.759c-1.156,5.7-4.7,13.677-5.249,14.883s-7.006,3.392-6.775,4.377.985,7.109,2.624,9.63a10.271,10.271,0,0,0,5.47,3.939c1.093.325,1.314.325,1.314-.768s-.768-2.624-.768-3.613-.108-7.679.33-8.537,14.766-23.447,16.952-27.151,5.583-10.944,6.567-12.146,2.186-2.846,1.2-4.923-23.591-9.034-23.591-9.034L228.75,291.9l-11.292-.655Z" transform="translate(-179.946 -220.408)" fill="#fff"></path><path id="Path_6593_-_Outline" data-name="Path 6593 - Outline" d="M217.458,290.75h.029l11.292.655a.5.5,0,0,1,.452.363l1.114,3.944c1.178.366,6.162,1.925,11.183,3.662,3.363,1.164,6.086,2.18,8.093,3.019,3.472,1.452,4.152,2.1,4.36,2.535a3.98,3.98,0,0,1,.156,3.176,8.054,8.054,0,0,1-1.422,2.278,57.152,57.152,0,0,0-3.019,5.52c-1.16,2.258-2.475,4.818-3.5,6.563-1.19,2.017-5.944,9.575-10.138,16.243-3.4,5.4-6.609,10.508-6.8,10.88a13.006,13.006,0,0,0-.263,3.37c-.036,1.651-.022,3.43-.015,4.386,0,.248,0,.439,0,.553a6.564,6.564,0,0,0,.349,1.577,7.6,7.6,0,0,1,.419,2.037,2.3,2.3,0,0,1-.136.95.846.846,0,0,1-.818.507,3.707,3.707,0,0,1-1-.21,10.766,10.766,0,0,1-5.746-4.145c-1.39-2.136-2.148-6.627-2.512-8.785-.079-.466-.141-.835-.18-1-.2-.86,1.014-1.5,3.561-2.767.779-.386,1.585-.785,2.208-1.149.883-.515,1.019-.742,1.037-.782.411-.906,4.047-9.021,5.214-14.776a48.6,48.6,0,0,1,3.927-11.228c.861-1.766,1.633-3.118,2.109-3.911-1.215.025-3.522.063-6.31.063-6.614,0-15.484-.208-20.176-1.2a18.246,18.246,0,0,1-9.384-5.393,15.449,15.449,0,0,1-3.914-6.48c-.673-3.053.5-7.713.55-7.91a.5.5,0,0,1,.427-.373l18.8-2.168A.5.5,0,0,1,217.458,290.75Zm10.908,1.633-10.893-.632-18.408,2.123c-.251,1.109-.988,4.738-.464,7.115.66,3,5.148,9.547,12.529,11.109,4.608.975,13.4,1.18,19.969,1.18,4.116,0,7.179-.083,7.209-.084a.5.5,0,0,1,.431.775,50.665,50.665,0,0,0-6.387,15.584c-1.189,5.862-4.868,14.073-5.283,14.99-.32.705-1.619,1.377-3.712,2.414-.735.364-1.495.74-2.075,1.075a3.653,3.653,0,0,0-.935.665c.044.211.1.538.171.967.353,2.092,1.087,6.444,2.364,8.406a9.733,9.733,0,0,0,5.193,3.732,5.006,5.006,0,0,0,.647.163,2.93,2.93,0,0,0,.025-.452,6.976,6.976,0,0,0-.377-1.751,7,7,0,0,1-.39-1.863c0-.113,0-.3,0-.546-.04-5.221.073-7.6.388-8.219.2-.392,2.731-4.42,6.843-10.958,4.19-6.663,8.94-14.215,10.123-16.219,1.015-1.719,2.323-4.265,3.476-6.511a53.623,53.623,0,0,1,3.135-5.7c1.032-1.259,1.969-2.635,1.136-4.392-.048-.093-.465-.632-3.894-2.062-1.992-.831-4.692-1.837-8.027-2.99-5.686-1.967-11.31-3.7-11.366-3.717a.5.5,0,0,1-.334-.342Z" transform="translate(-179.946 -220.408)" fill="#263238"></path><path id="Path_6594" data-name="Path 6594" d="M229.9,296.1l-1.188-4.205-11.292-.655L198.6,293.426s-1.229,4.711-.547,7.679c1.084,4.693,5.145,9.847,12.914,11.491s27.3,1.107,27.3,1.107,1.852-9.255,5.47-12.864C239.383,299.357,229.9,296.1,229.9,296.1Z" transform="translate(-179.906 -220.403)" fill="#263238"></path><path id="Path_6594_-_Outline" data-name="Path 6594 - Outline" d="M217.418,290.74h.029l11.292.655a.5.5,0,0,1,.452.363l1.117,3.953c1.525.523,9.678,3.322,13.582,4.653a.5.5,0,0,1,.192.827c-3.47,3.462-5.314,12.517-5.333,12.608a.5.5,0,0,1-.477.4c-.031,0-3.106.084-7.236.084-6.614,0-15.484-.208-20.176-1.2a18.279,18.279,0,0,1-9.21-4.734,14.651,14.651,0,0,1-4.087-7.133c-.7-3.052.5-7.72.55-7.917a.5.5,0,0,1,.426-.371l18.822-2.186A.5.5,0,0,1,217.418,290.74Zm10.908,1.634-10.893-.632L199,293.883c-.256,1.106-1.009,4.738-.463,7.11.993,4.3,4.807,9.479,12.53,11.114,4.608.975,13.4,1.18,19.969,1.18,3.261,0,5.862-.052,6.816-.074.172-.778.606-2.619,1.31-4.746a22.889,22.889,0,0,1,3.682-7.4c-4.546-1.552-13.019-4.461-13.108-4.492a.5.5,0,0,1-.319-.337Z" transform="translate(-179.906 -220.403)" fill="#263238"></path><path id="Path_6595" data-name="Path 6595" d="M287.37,337.446a39.746,39.746,0,0,0,7.548-2.846" transform="translate(-228.994 -244.178)" fill="#fff"></path><path id="Path_6595_-_Outline" data-name="Path 6595 - Outline" d="M287.37,337.946a.5.5,0,0,1-.128-.983,39.327,39.327,0,0,0,7.453-2.81.5.5,0,1,1,.446.9,40.328,40.328,0,0,1-7.643,2.881A.5.5,0,0,1,287.37,337.946Z" transform="translate(-228.994 -244.178)" fill="#263238"></path><path id="Path_6596" data-name="Path 6596" d="M250.14,421.133c-.777-1.807-.727-5.42-.628-7.353-1.653.818-3.2,1.608-3.09,2.1.217.985.985,7.109,2.624,9.63a10.271,10.271,0,0,0,5.47,3.939c1.093.325,1.314.325,1.314-.768s-.763-2.62-.768-3.613a25.959,25.959,0,0,1-3.392-.664S251.233,423.649,250.14,421.133Z" transform="translate(-206.539 -287.594)" fill="#bb002f"></path><path id="Path_6596_-_Outline" data-name="Path 6596 - Outline" d="M249.512,413.28a.5.5,0,0,1,.5.526c-.08,1.548-.182,5.341.588,7.13s1.228,2.693,1.409,3.039a25.561,25.561,0,0,0,3.119.6.5.5,0,0,1,.437.494,6.653,6.653,0,0,0,.349,1.576,7.62,7.62,0,0,1,.419,2.04,2.3,2.3,0,0,1-.136.95.846.846,0,0,1-.818.507,3.706,3.706,0,0,1-1-.21,10.766,10.766,0,0,1-5.746-4.145c-1.414-2.174-2.172-6.717-2.536-8.9-.069-.412-.123-.738-.158-.895-.186-.81.88-1.431,3.356-2.656A.5.5,0,0,1,249.512,413.28Zm5.087,12.229a26.567,26.567,0,0,1-3.056-.622.5.5,0,0,1-.3-.232c-.018-.032-.465-.808-1.557-3.322-.716-1.666-.77-4.655-.7-6.727-.432.219-.845.437-1.189.638a3.374,3.374,0,0,0-.858.621c.038.192.086.479.148.853.325,1.951,1.087,6.52,2.388,8.52a9.733,9.733,0,0,0,5.193,3.732,5.006,5.006,0,0,0,.647.163,2.932,2.932,0,0,0,.025-.452,7,7,0,0,0-.377-1.754A10.479,10.479,0,0,1,254.6,425.509Z" transform="translate(-206.539 -287.594)" fill="#263238"></path><path id="Path_6597" data-name="Path 6597" d="M247.042,200.12l-3.392,1.423s2.737,25.624,2.629,29.237-.33,10.84-.33,10.84,4.707,1.423,7.877.33l-.217-12.363s2.3-11.821,1.423-15.651a96.531,96.531,0,0,0-3.613-10.615S250.132,200.228,247.042,200.12Z" transform="translate(-205.022 -170.44)" fill="#fff"></path><path id="Path_6597_-_Outline" data-name="Path 6597 - Outline" d="M247.042,199.62h.018a5.164,5.164,0,0,1,3.7,1.807,6.628,6.628,0,0,1,1.12,1.7l0,0a95.42,95.42,0,0,1,3.637,10.69c.869,3.8-1.223,14.838-1.409,15.806l.216,12.31a.5.5,0,0,1-.337.481,9.344,9.344,0,0,1-3.024.44,20.069,20.069,0,0,1-5.161-.764.5.5,0,0,1-.355-.494c0-.072.223-7.268.33-10.84.106-3.538-2.6-28.913-2.626-29.169a.5.5,0,0,1,.3-.514l3.392-1.423A.5.5,0,0,1,247.042,199.62Zm3.915,3.893a5.742,5.742,0,0,0-.96-1.44,4.138,4.138,0,0,0-2.865-1.448l-2.945,1.235c.349,3.282,2.694,25.524,2.592,28.935-.093,3.089-.27,8.889-.318,10.447a19.168,19.168,0,0,0,4.5.621,8.93,8.93,0,0,0,2.355-.279l-.21-11.987a.5.5,0,0,1,.009-.1c.023-.117,2.269-11.76,1.426-15.444A96.309,96.309,0,0,0,250.957,203.513Z" transform="translate(-205.022 -170.44)" fill="#263238"></path><path id="Path_6598" data-name="Path 6598" d="M246.077,210.758l3.288-5.009,4.043,5.872s-1.748-8.207-1.969-8.754a6.414,6.414,0,0,0-2.295-2.516,7.552,7.552,0,0,0-3.722-.985c-.872-.081-1.753,1.753-1.753,1.753Z" transform="translate(-205.033 -170.026)" fill="#fff"></path><path id="Path_6598_-_Outline" data-name="Path 6598 - Outline" d="M253.408,212.121A.5.5,0,0,1,253,211.9l-3.621-5.259-2.88,4.387a.5.5,0,0,1-.9-.153l-2.407-9.639a.5.5,0,0,1,.034-.338c.164-.34,1.035-2.039,2.147-2.039.034,0,.069,0,.1,0l.3.025a7.374,7.374,0,0,1,3.644,1.038,6.917,6.917,0,0,1,2.468,2.708q.01.019.018.039c.226.559,1.7,7.46,1.995,8.837a.5.5,0,0,1-.489.6ZM244.2,201.179l2.086,8.351,2.662-4.055a.5.5,0,0,1,.83-.009l2.612,3.794c-.6-2.782-1.272-5.8-1.409-6.19a5.917,5.917,0,0,0-2.1-2.295l-.011-.007a6.522,6.522,0,0,0-3.174-.876l-.317-.027h-.01C245.086,199.864,244.54,200.539,244.2,201.179Z" transform="translate(-205.033 -170.026)" fill="#263238"></path><path id="Path_6599" data-name="Path 6599" d="M217.729,199.23s-11,2.407-11.942,3.094-1.355,2.922-1.12,3.781,2.751,19.422,2.751,19.422L194.77,244s4.128,3.437,7.995,4.124,12.114-.343,15.037-1.545l2.922-1.2s1.355-22.431-.086-31.284S217.729,199.23,217.729,199.23Z" transform="translate(-178.22 -169.952)" fill="#bb002f"></path><path id="Path_6599_-_Outline" data-name="Path 6599 - Outline" d="M217.729,198.73a.5.5,0,0,1,.485.382c.015.06,1.489,6.132,2.917,14.9.6,3.7.8,10.113.59,19.054-.157,6.647-.495,12.284-.5,12.34a.5.5,0,0,1-.309.432l-2.922,1.2c-2.377.977-7.921,1.8-12.106,1.8a18.9,18.9,0,0,1-3.208-.228c-3.952-.7-8.055-4.088-8.227-4.232a.5.5,0,0,1-.093-.667L206.9,225.4c-1.009-7.445-2.546-18.557-2.712-19.167a4.808,4.808,0,0,1,.116-2.21,3.889,3.889,0,0,1,1.193-2.107c.2-.146.671-.488,6.5-1.886,2.84-.681,5.6-1.286,5.627-1.292A.5.5,0,0,1,217.729,198.73Zm2.513,46.306c.156-2.744,1.225-22.728-.1-30.86-1.193-7.33-2.418-12.762-2.788-14.351-.91.2-2.987.668-5.111,1.177-5.222,1.252-6.039,1.638-6.165,1.727a4.2,4.2,0,0,0-.932,3.244c.237.865,2.506,17.584,2.764,19.487a.5.5,0,0,1-.083.35L195.446,243.9c1.068.822,4.355,3.192,7.406,3.734a17.93,17.93,0,0,0,3.033.213c4.008,0,9.488-.807,11.726-1.728Z" transform="translate(-178.22 -169.952)" fill="#263238"></path><path id="Path_6600" data-name="Path 6600" d="M320.37,252.682l4.3-1.888s1.292-2.837,1.463-3.094,1.631-.687,2.317-1.292a21.706,21.706,0,0,1,1.893-1.716c.257-.086.687.687,0,1.716a11.12,11.12,0,0,1-1.807,1.978l4.214-1.545s1.631-2.751,2.06-1.549-1.807,4.9-2.317,6.1-1.034,1.807-1.978,1.978-3.866.687-4.467.772a38.744,38.744,0,0,0-4.3,2.231Z" transform="translate(-247.089 -194.876)" fill="#fff"></path><path id="Path_6600_-_Outline" data-name="Path 6600 - Outline" d="M321.743,256.877a.5.5,0,0,1-.469-.326l-1.373-3.695a.5.5,0,0,1,.268-.632l4.121-1.811c.374-.818,1.257-2.74,1.423-2.99.148-.222.431-.357,1-.616a6.234,6.234,0,0,0,1.4-.773c.253-.223.547-.509.831-.785.716-.7.989-.948,1.234-1.03a.627.627,0,0,1,.2-.032.781.781,0,0,1,.67.453,2.026,2.026,0,0,1-.294,2.047l-.009.013q-.173.242-.357.475l2.023-.741c.114-.182.321-.5.566-.82.593-.777,1.055-1.123,1.5-1.123a.841.841,0,0,1,.8.636c.368,1.03-.566,2.99-1.731,5.256-.258.5-.481.935-.6,1.21a3.232,3.232,0,0,1-2.349,2.275c-.888.161-3.86.686-4.486.775a36.626,36.626,0,0,0-4.12,2.169A.5.5,0,0,1,321.743,256.877ZM321,252.95l1,2.7a25.088,25.088,0,0,1,3.967-2c.574-.082,3.452-.588,4.448-.769.715-.13,1.135-.57,1.608-1.682.131-.308.361-.756.628-1.276.405-.788.91-1.77,1.265-2.649a4.119,4.119,0,0,0,.436-1.7,6.719,6.719,0,0,0-1.182,1.523.5.5,0,0,1-.258.214l-4.214,1.545a.5.5,0,0,1-.5-.849,10.629,10.629,0,0,0,1.721-1.883,1.572,1.572,0,0,0,.278-.7c-.176.163-.386.367-.561.537-.293.285-.6.58-.867.819a6.878,6.878,0,0,1-1.647.934,6.554,6.554,0,0,0-.6.295c-.157.285-.82,1.706-1.4,2.989a.5.5,0,0,1-.254.251Z" transform="translate(-247.089 -194.876)" fill="#263238"></path><path id="Path_6601" data-name="Path 6601" d="M333.57,255.134a5.036,5.036,0,0,1,2.114-1.287c.949,0,3.008.172,3.008.172s1.206-2.751,1.807-3.162,1.116.172.6,1.03" transform="translate(-254.327 -198.186)" fill="#fff"></path><path id="Path_6601_-_Outline" data-name="Path 6601 - Outline" d="M333.57,255.634a.5.5,0,0,1-.323-.882c1.489-1.26,2.1-1.406,2.437-1.406.728,0,2.059.1,2.7.145a10.405,10.405,0,0,1,1.837-3.048,1,1,0,0,1,1.287.021,1.307,1.307,0,0,1,.025,1.678.5.5,0,0,1-.857-.515.869.869,0,0,0,.139-.378l-.029.018a12.017,12.017,0,0,0-1.631,2.95.5.5,0,0,1-.5.3c-.02,0-2.05-.17-2.967-.17-.017,0-.425.013-1.791,1.169A.5.5,0,0,1,333.57,255.634Z" transform="translate(-254.327 -198.186)" fill="#263238"></path><path id="Path_6602" data-name="Path 6602" d="M258.35,203.8s2.751,11.942,2.665,16.41-1.468,6.717-1.206,8.252.858,19.594.858,19.594l2.407.086s-.6-6.875-.515-8.166.944-6.446.944-6.446,4.3,8.51,4.9,8.939,20.538-8.076,20.538-8.076l-1.463-4.9-15.208,3.094s-3.008-9.969-3.437-12.119-.772-9.707-1.978-11.6S258.35,203.8,258.35,203.8Z" transform="translate(-213.082 -172.458)" fill="#bb002f"></path><path id="Path_6602_-_Outline" data-name="Path 6602 - Outline" d="M258.35,203.3a.5.5,0,0,1,.2.042c.018.008,1.864.813,3.832,1.839,2.738,1.428,4.34,2.546,4.9,3.418.9,1.406,1.315,5.389,1.652,8.59.143,1.361.267,2.537.4,3.18.369,1.847,2.711,9.692,3.294,11.636l14.761-3a.5.5,0,0,1,.579.347l1.463,4.9a.5.5,0,0,1-.283.6c-.047.02-4.8,2.047-9.677,4.049-9.948,4.083-10.7,4.083-10.978,4.083a.622.622,0,0,1-.37-.109c-.165-.118-.472-.337-2.827-4.8-.568-1.077-1.121-2.149-1.535-2.954-.259,1.62-.639,4.074-.693,4.891-.066.991.307,5.725.514,8.09a.5.5,0,0,1-.516.543l-2.407-.086a.5.5,0,0,1-.482-.483c-.206-6.234-.649-18.338-.851-19.526a7.189,7.189,0,0,1,.37-2.787,22.919,22.919,0,0,0,.829-5.558c.084-4.354-2.625-16.169-2.652-16.288a.5.5,0,0,1,.487-.612Zm13.92,29.786a.5.5,0,0,1-.478-.356c-.123-.408-3.02-10.016-3.449-12.165-.137-.689-.263-1.885-.409-3.271-.309-2.933-.731-6.95-1.5-8.157-.8-1.262-5-3.378-7.376-4.471.657,2.965,2.53,11.779,2.458,15.554a24.11,24.11,0,0,1-.859,5.782,6.7,6.7,0,0,0-.354,2.376c.244,1.429.752,16.29.849,19.2l1.377.049c-.142-1.684-.541-6.572-.467-7.68.086-1.3.915-6.283.95-6.495a.5.5,0,0,1,.939-.143c2.154,4.262,4.123,7.906,4.673,8.66.552-.113,2.653-.784,10.5-4,4.025-1.653,7.96-3.319,9.214-3.852l-1.2-4.035-14.76,3A.5.5,0,0,1,272.271,233.086Z" transform="translate(-213.082 -172.458)" fill="#263238"></path><path id="Path_6603" data-name="Path 6603" d="M269.76,248.215a.5.5,0,0,1-.487-.617c.007-.028.523-2.209,1.37-7.777a35.242,35.242,0,0,0,.085-10.084.5.5,0,0,1,.991-.135,36.241,36.241,0,0,1-.087,10.369c-.856,5.629-1.364,7.771-1.386,7.86A.5.5,0,0,1,269.76,248.215Z" transform="translate(-219.339 -186.643)" fill="#263238"></path><path id="Path_6604" data-name="Path 6604" d="M262.72,235.19a.5.5,0,0,1-.46-.7,50.424,50.424,0,0,0,2.384-6.977c.545-2.094.2-5.964-.179-8.841a.5.5,0,1,1,.991-.132c.394,2.966.741,6.975.155,9.225a51.431,51.431,0,0,1-2.431,7.116A.5.5,0,0,1,262.72,235.19Z" transform="translate(-215.479 -180.579)" fill="#263238"></path><path id="Path_6605" data-name="Path 6605" d="M266.541,211.662a.5.5,0,0,1-.494-.425c-.279-1.831-.536-3.127-.538-3.14a.5.5,0,0,1,.981-.195c0,.013.263,1.329.546,3.184a.5.5,0,0,1-.495.575Z" transform="translate(-217.277 -174.761)" fill="#263238"></path><path id="Path_6606" data-name="Path 6606" d="M249.9,250.961a.5.5,0,0,1-.47-.329c-.01-.027-.995-2.721-2.094-5.445a.5.5,0,0,1,.927-.374c1.106,2.74,2.1,5.449,2.106,5.476a.5.5,0,0,1-.47.672Z" transform="translate(-207.298 -195.049)" fill="#263238"></path><path id="Path_6607" data-name="Path 6607" d="M240.811,220.413a.5.5,0,0,1-.46-.3c-.329-.765-.678-1.566-1-2.241-1.562-3.292-3.484-15.021-3.565-15.519a.5.5,0,0,1,.987-.161c.02.12,1.98,12.086,3.481,15.25.329.69.682,1.5,1.015,2.275a.5.5,0,0,1-.459.7Z" transform="translate(-200.981 -171.619)" fill="#263238"></path><path id="Path_6608" data-name="Path 6608" d="M290.31,247.351l3.352-.949s2.15-2.751,2.665-3.437,1.716-.687,2.579-1.2,1.974-2.407,2.4-2.064,0,1.893-.452,2.322a18.17,18.17,0,0,1-1.807,1.287c-.343.257,4.038-.772,4.038-.772s2.837-2.493,3.008-1.807-1.292,3.094-1.292,3.094-2.06,1.974-3.094,2.832-3.523,1.206-4.21,1.355-1.888.343-1.888.343l-5.158,1.888Z" transform="translate(-230.607 -192.12)" fill="#fff"></path><path id="Path_6608_-_Outline" data-name="Path 6608 - Outline" d="M290.455,250.742a.5.5,0,0,1-.5-.475l-.145-2.891a.5.5,0,0,1,.363-.506l3.194-.9c.431-.551,2.116-2.711,2.558-3.3a3.049,3.049,0,0,1,1.677-.925,4.835,4.835,0,0,0,1.046-.406A5.911,5.911,0,0,0,299.7,240.3c.579-.661,1-1.139,1.486-1.139a.684.684,0,0,1,.432.151,1.091,1.091,0,0,1,.363.849,3.442,3.442,0,0,1-.783,2.225l-.03.026-.081.066c.558-.121,1.173-.26,1.764-.4.186-.16.62-.529,1.107-.9,1.227-.94,1.682-1.066,1.966-1.066a.652.652,0,0,1,.655.5c.071.283.064.784-.62,2.15-.35.7-.715,1.3-.73,1.325a.5.5,0,0,1-.081.1c-.085.081-2.085,2-3.121,2.856a10.012,10.012,0,0,1-4.017,1.38c-.166.031-.31.058-.406.079-.622.135-1.633.3-1.867.341l-5.114,1.872A.5.5,0,0,1,290.455,250.742Zm.375-3.018.091,1.815,4.521-1.655a.5.5,0,0,1,.092-.024c.012,0,1.2-.194,1.862-.338.11-.024.253-.051.434-.084a9.6,9.6,0,0,0,3.563-1.167c.922-.765,2.706-2.463,3.02-2.763a13.8,13.8,0,0,0,1.093-2.192,16.523,16.523,0,0,0-2.086,1.6.5.5,0,0,1-.216.111c-.825.194-3.561.827-4.1.827a.532.532,0,0,1-.541-.357.519.519,0,0,1,.193-.585l.035-.024a17.739,17.739,0,0,0,1.739-1.237,2.667,2.667,0,0,0,.457-1.269c-.17.171-.372.4-.527.578a6.3,6.3,0,0,1-1.293,1.237,5.572,5.572,0,0,1-1.267.5,2.374,2.374,0,0,0-1.168.568c-.512.683-2.583,3.333-2.671,3.445a.5.5,0,0,1-.258.173Z" transform="translate(-230.607 -192.12)" fill="#263238"></path><path id="Path_6609" data-name="Path 6609" d="M317.6,250s-1.807.858-2.751,1.287" transform="translate(-244.062 -197.79)" fill="#fff"></path><path id="Path_6609_-_Outline" data-name="Path 6609 - Outline" d="M314.85,251.787a.5.5,0,0,1-.207-.955c.929-.422,2.725-1.275,2.743-1.284a.5.5,0,0,1,.429.9c-.018.009-1.821.865-2.758,1.291A.5.5,0,0,1,314.85,251.787Z" transform="translate(-244.062 -197.79)" fill="#263238"></path><path id="Line_771" data-name="Line 771" d="M0,.843A.5.5,0,0,1-.488.451a.5.5,0,0,1,.38-.6L1.441-.488a.5.5,0,0,1,.6.38.5.5,0,0,1-.38.6L.108.831A.5.5,0,0,1,0,.843Z" transform="translate(66.921 51.189)" fill="#263238"></path><path id="Path_6610" data-name="Path 6610" d="M216.082,204.56s-5.068,1.716-5.845,3.008,1.978,11.857,4.043,17.7,7.561,15.637,8.248,15.981,18.65-6.012,22.76-7.3,4.81-1.974,4.81-1.974l-1.807-4.643-20.619,3.695-6.324-19.847" transform="translate(-186.627 -172.875)" fill="#bb002f"></path><path id="Path_6610_-_Outline" data-name="Path 6610 - Outline" d="M222.592,241.765a.544.544,0,0,1-.288-.067c-.145-.072-.387-.194-1.491-2.007-.672-1.1-1.5-2.572-2.333-4.132a85.578,85.578,0,0,1-4.671-10.122c-1.048-2.967-2.265-7.131-3.1-10.608-1.548-6.437-1.059-7.251-.9-7.518.141-.234.568-.945,3.444-2.19,1.367-.592,2.617-1.017,2.669-1.034a.5.5,0,0,1,.321.947c-.013,0-1.268.431-2.6,1.007-2.325,1.007-2.857,1.584-2.978,1.785-.018.034-.177.4.089,2.219.173,1.185.5,2.777.938,4.605.828,3.433,2.028,7.536,3.059,10.453a79.53,79.53,0,0,0,4.5,9.775,47.477,47.477,0,0,0,3.473,5.877,50.425,50.425,0,0,0,5.712-1.684c3.079-1,6.807-2.269,10.1-3.387,2.881-.98,5.369-1.826,6.607-2.215a23.5,23.5,0,0,0,4.349-1.688l-1.513-3.887-20.214,3.622a.5.5,0,0,1-.565-.34l-6.324-19.847a.5.5,0,1,1,.953-.3l6.19,19.429,20.188-3.617a.5.5,0,0,1,.554.311l1.807,4.643a.5.5,0,0,1-.117.539c-.131.128-.989.829-5.009,2.093-1.227.386-3.71,1.23-6.585,2.208-3.418,1.162-7.292,2.479-10.434,3.5C224.236,241.483,223.04,241.765,222.592,241.765Z" transform="translate(-186.627 -172.875)" fill="#263238"></path><path id="Path_6611" data-name="Path 6611" d="M273.557,146.225s2.005,1.355.989,2.814a4.49,4.49,0,0,1-3.162,1.558l-1.874-2.954S271.741,145,273.557,146.225Z" transform="translate(-219.202 -140.71)" fill="#263238"></path><path id="Path_6611_-_Outline" data-name="Path 6611 - Outline" d="M272.5,145.4a2.339,2.339,0,0,1,1.333.411,3.591,3.591,0,0,1,1.463,2.008,1.962,1.962,0,0,1-.344,1.506,4.96,4.96,0,0,1-3.549,1.772.5.5,0,0,1-.445-.232l-1.874-2.954a.5.5,0,0,1,.04-.59C269.194,147.243,270.768,145.4,272.5,145.4Zm-.864,4.667a3.754,3.754,0,0,0,2.5-1.314.959.959,0,0,0,.181-.752,2.715,2.715,0,0,0-1.04-1.362,1.339,1.339,0,0,0-.773-.24,3.974,3.974,0,0,0-2.366,1.3Z" transform="translate(-219.202 -140.71)" fill="#263238"></path><path id="Path_6612" data-name="Path 6612" d="M252.758,150.018s3.076,7.3,2.9,7.927-1.6,1.608-.953,2.561,2.557,2.859,2.507,3.126a14.425,14.425,0,0,1-2.38,1.626s-1.631,5.872-2.295,6.73-6.269-.185-6.269-.185l-1.183,6.577-6.658-6.206-2.489-2.349s-2.231-10.018,2.5-16.039S252.758,150.018,252.758,150.018Z" transform="translate(-200.508 -142.742)" fill="#fff"></path><path id="Path_6612_-_Outline" data-name="Path 6612 - Outline" d="M248.622,149.105a20.305,20.305,0,0,1,4.251.426.5.5,0,0,1,.346.293c.008.018.78,1.852,1.521,3.739,1.556,3.961,1.468,4.28,1.4,4.514a2.753,2.753,0,0,1-.537.883c-.5.637-.686.971-.485,1.265.274.4.822,1.025,1.3,1.574,1.148,1.306,1.347,1.567,1.281,1.925-.048.259-.205.466-1.433,1.244-.4.254-.793.49-1.012.619-.373,1.33-1.675,5.865-2.327,6.708-.285.368-.894.533-1.974.533a29.8,29.8,0,0,1-4.287-.446l-1.1,6.087a.5.5,0,0,1-.833.277l-6.658-6.206-2.491-2.351a.5.5,0,0,1-.145-.255,28.291,28.291,0,0,1-.536-5.876,22.639,22.639,0,0,1,.654-5.35,13.99,13.99,0,0,1,2.479-5.231C240.892,149.864,245.368,149.105,248.622,149.105Zm3.777,1.349a20.518,20.518,0,0,0-3.777-.349c-3.033,0-7.192.692-9.785,3.989-2.358,3-2.889,7.079-2.919,9.974a28.365,28.365,0,0,0,.482,5.5l2.374,2.241,5.985,5.579,1.021-5.674a.5.5,0,0,1,.584-.4,32.273,32.273,0,0,0,4.6.515,2.514,2.514,0,0,0,1.191-.156,43.81,43.81,0,0,0,2.2-6.547.5.5,0,0,1,.23-.3c.752-.439,1.621-.985,2.015-1.282-.213-.278-.612-.731-.923-1.085a20.836,20.836,0,0,1-1.38-1.671,1.457,1.457,0,0,1-.125-1.431,4.391,4.391,0,0,1,.648-1.012,3.359,3.359,0,0,0,.348-.5A62.787,62.787,0,0,0,252.4,150.454Z" transform="translate(-200.508 -142.742)" fill="#263238"></path><path id="Path_6613" data-name="Path 6613" d="M271.619,171.919c0,.614-.253,1.111-.538,1.107s-.506-.51-.492-1.129.248-1.111.533-1.107S271.628,171.3,271.619,171.919Z" transform="translate(-219.793 -154.358)" fill="#263238"></path><path id="Path_6614" data-name="Path 6614" d="M269.5,185.865a3.93,3.93,0,0,1-2.787-1.355s-.167,2.642.655,2.8S269.5,185.865,269.5,185.865Z" transform="translate(-217.66 -161.881)" fill="#263238"></path><path id="Path_6614_-_Outline" data-name="Path 6614 - Outline" d="M266.713,184.01a.5.5,0,0,1,.378.173,3.445,3.445,0,0,0,2.432,1.183.5.5,0,0,1,.363.817c-.224.273-1.393,1.634-2.4,1.634a1.136,1.136,0,0,1-.208-.019c-.886-.166-1-1.473-1.042-1.9a10.446,10.446,0,0,1-.02-1.417.5.5,0,0,1,.5-.468Zm1.773,2.193a4.468,4.468,0,0,1-1.27-.587l0,.044a2.334,2.334,0,0,0,.264,1.157h0A2.121,2.121,0,0,0,268.486,186.2Z" transform="translate(-217.66 -161.881)" fill="#263238"></path><path id="Path_6615" data-name="Path 6615" d="M272.313,167.918a.5.5,0,0,1-.371-.165,1.652,1.652,0,0,0-1.677-.617,2.329,2.329,0,0,0-.874.417.5.5,0,0,1-.644-.765,3.268,3.268,0,0,1,1.253-.617,2.622,2.622,0,0,1,2.685.912.5.5,0,0,1-.371.835Z" transform="translate(-218.96 -152.057)" fill="#263238"></path><path id="Path_6616" data-name="Path 6616" d="M256.078,197.944l-2.778-.664,2.091,3.88Z" transform="translate(-210.313 -168.883)" fill="#263238"></path><path id="Path_6616_-_Outline" data-name="Path 6616 - Outline" d="M253.3,196.78a.5.5,0,0,1,.116.014l2.778.664a.5.5,0,0,1,.373.591l-.687,3.216a.5.5,0,0,1-.929.133l-2.091-3.88a.5.5,0,0,1,.44-.737Zm2.187,1.537-1.217-.291.916,1.7Z" transform="translate(-210.313 -168.883)" fill="#263238"></path><path id="Path_6617" data-name="Path 6617" d="M242.3,141.687s-.605,1.9-3.564,4.386-5.605,4.065-5.6,4.752.452,1.328-.145,1.5a2.48,2.48,0,0,1-1.418-.239,34.53,34.53,0,0,0-1.653,6.988,14.486,14.486,0,0,0,.854,5.61s-6.373.343-10.05-2.448-4.711-5.953-4.3-8.695,1.572-11.4,7.227-15.642,13.758-4.065,16.509-2.335,4.743,3,4.237,4.368A3.213,3.213,0,0,1,242.3,141.687Z" transform="translate(-190.046 -134.41)" fill="#263238"></path><path id="Path_6617_-_Outline" data-name="Path 6617 - Outline" d="M234.692,133.91a11.4,11.4,0,0,1,5.729,1.224,26.62,26.62,0,0,1,3.409,2.372c.369.334,1.49,1.349,1.031,2.592a3.572,3.572,0,0,1-2.188,1.994,12.759,12.759,0,0,1-3.619,4.363c-1.121.941-2.217,1.769-3.1,2.434a13.4,13.4,0,0,0-2.319,1.962,2.971,2.971,0,0,0,.082.5,2.036,2.036,0,0,1,.074.72.859.859,0,0,1-.666.729.5.5,0,0,1-.072.015,3,3,0,0,1-1.173-.085,31.516,31.516,0,0,0-1.463,6.367,13.915,13.915,0,0,0,.825,5.409.5.5,0,0,1-.495.672l-.139,0c-.109,0-.286.007-.512.007-1.894,0-6.63-.25-9.677-2.563a12.059,12.059,0,0,1-3.837-4.559,8.148,8.148,0,0,1-.66-4.607l.027-.185a38.4,38.4,0,0,1,1.71-7.364,17.5,17.5,0,0,1,5.684-8.42A19.229,19.229,0,0,1,234.692,133.91Zm-1.9,17.925c-.012-.081-.036-.188-.053-.269a3.556,3.556,0,0,1-.106-.736c-.009-.649.692-1.211,2.717-2.74.917-.692,1.956-1.477,3.057-2.4,2.785-2.338,3.4-4.139,3.41-4.157a.5.5,0,0,1,.356-.331,2.73,2.73,0,0,0,1.747-1.45c.37-1-1.671-2.285-4.034-3.771a10.6,10.6,0,0,0-5.2-1.07,18.211,18.211,0,0,0-10.746,3.382c-5.369,4.026-6.6,12.383-7,15.129l-.027.186c-.31,2.092.152,5.216,4.112,8.223,2.8,2.123,7.252,2.358,9.056,2.36a14.9,14.9,0,0,1-.661-5.146s0-.01,0-.014a34.673,34.673,0,0,1,1.678-7.109.5.5,0,0,1,.7-.289A1.988,1.988,0,0,0,232.8,151.836Z" transform="translate(-190.046 -134.41)" fill="#263238"></path><path id="Path_6618" data-name="Path 6618" d="M210.664,312.456a1.125,1.125,0,0,1-.488-.108,1.509,1.509,0,0,1-.682-1.874c2.042-5.574,4.381-15.515,1.983-18.483-.56-.452-3.934-1.355-22.11.524l-1.323.135c-1.269.108-2.353,1.942-2.633,2.575a1.206,1.206,0,0,1-1.7.646,1.536,1.536,0,0,1-.569-1.929c.176-.4,1.807-3.9,4.707-4.155l1.287-.131c19.368-2.014,23.081-1,24.21.393,4.264,5.276-.9,19.874-1.513,21.523A1.269,1.269,0,0,1,210.664,312.456Z" transform="translate(-171.769 -218.913)" fill="#fff"></path><path id="Path_6618_-_Outline" data-name="Path 6618 - Outline" d="M210.658,312.956a1.636,1.636,0,0,1-.7-.157l-.025-.013a2.013,2.013,0,0,1-.91-2.49,55.6,55.6,0,0,0,2.63-10.117c.583-3.837.4-6.609-.527-7.823-.181-.107-1.088-.484-4.879-.484-3.858,0-9.521.383-16.831,1.139l-1.324.136h-.008c-.935.08-1.906,1.58-2.213,2.266a1.706,1.706,0,0,1-2.4.9l-.035-.02a2.046,2.046,0,0,1-.754-2.557,10.256,10.256,0,0,1,1.4-2.244,5.479,5.479,0,0,1,3.713-2.2l1.284-.131c7.344-.764,12.812-1.135,16.715-1.135a25.186,25.186,0,0,1,5.619.466,4.057,4.057,0,0,1,2.315,1.245c1.886,2.333,2.28,6.548,1.174,12.527a63.556,63.556,0,0,1-2.6,9.473,1.772,1.772,0,0,1-1.627,1.222h-.022ZM210.4,311.9a.63.63,0,0,0,.252.055.77.77,0,0,0,.7-.536l.008-.022c.238-.644,5.789-15.843,1.593-21.035-.467-.575-1.717-1.34-7.157-1.34-3.868,0-9.3.37-16.613,1.13l-1.288.131h-.007c-2.611.228-4.128,3.489-4.293,3.86a1.043,1.043,0,0,0,.364,1.294.714.714,0,0,0,.566.028.706.706,0,0,0,.411-.415l.012-.029c.012-.027,1.221-2.71,3.044-2.87l1.319-.135c7.344-.759,13.041-1.144,16.933-1.144,4.638,0,5.318.548,5.541.728a.5.5,0,0,1,.075.075c1.17,1.448,1.432,4.359.779,8.654a56.669,56.669,0,0,1-2.681,10.316l0,.01A1.011,1.011,0,0,0,210.4,311.9Z" transform="translate(-171.769 -218.913)" fill="#263238"></path></g><g id="freepik--Device--inject-2" transform="translate(187.353 135.053)"><path id="Path_6619" data-name="Path 6619" d="M376.656,247.54h-29.68L340.11,270.8h29.68Z" transform="translate(-318.023 -247.54)" fill="#d9d9d9"></path><path id="Path_6619_-_Outline" data-name="Path 6619 - Outline" d="M346.976,247.04h29.68a.5.5,0,0,1,.48.642l-6.866,23.257a.5.5,0,0,1-.48.358H340.11a.5.5,0,0,1-.48-.642L346.5,247.4A.5.5,0,0,1,346.976,247.04Zm29.011,1H347.349l-6.57,22.257h28.637Z" transform="translate(-318.023 -247.54)" fill="#263238"></path><path id="Path_6620" data-name="Path 6620" d="M291.585,296.21l-.375,1.274h51.767l.379-1.274Z" transform="translate(-291.21 -274.227)" fill="#d9d9d9"></path><path id="Path_6620_-_Outline" data-name="Path 6620 - Outline" d="M291.585,295.71h51.772a.5.5,0,0,1,.479.643l-.379,1.274a.5.5,0,0,1-.479.357H291.21a.5.5,0,0,1-.48-.641l.375-1.274A.5.5,0,0,1,291.585,295.71Zm51.1,1H291.959l-.081.274H342.6Z" transform="translate(-291.21 -274.227)" fill="#263238"></path><path id="Path_6621" data-name="Path 6621" d="M340.6,296.21l-.375,1.274h29.626l.379-1.274Z" transform="translate(-318.089 -274.227)" fill="#263238"></path><path id="Path_6621_-_Outline" data-name="Path 6621 - Outline" d="M340.6,295.71h29.63a.5.5,0,0,1,.479.643l-.379,1.274a.5.5,0,0,1-.479.357H340.23a.5.5,0,0,1-.48-.641l.375-1.274A.5.5,0,0,1,340.6,295.71Zm28.96,1H340.979l-.081.274h28.585Z" transform="translate(-318.089 -274.227)" fill="#263238"></path></g><g id="freepik--Desk--inject-2" transform="translate(172.204 158.323)"><rect id="Rectangle_1094" data-name="Rectangle 1094" width="5.023" height="67.156" transform="translate(61.47 3.478)" fill="#fff"></rect><path id="Rectangle_1094_-_Outline" data-name="Rectangle 1094 - Outline" d="M0-.5H5.023a.5.5,0,0,1,.5.5V67.156a.5.5,0,0,1-.5.5H0a.5.5,0,0,1-.5-.5V0A.5.5,0,0,1,0-.5ZM4.523.5H.5V66.656H4.523Z" transform="translate(61.47 3.478)" fill="#263238"></path><rect id="Rectangle_1095" data-name="Rectangle 1095" width="5.023" height="11.093" transform="translate(61.47 3.478)" fill="#263238"></rect><path id="Rectangle_1095_-_Outline" data-name="Rectangle 1095 - Outline" d="M0-.5H5.023a.5.5,0,0,1,.5.5V11.093a.5.5,0,0,1-.5.5H0a.5.5,0,0,1-.5-.5V0A.5.5,0,0,1,0-.5ZM4.523.5H.5V10.593H4.523Z" transform="translate(61.47 3.478)" fill="#263238"></path><rect id="Rectangle_1096" data-name="Rectangle 1096" width="127.51" height="3.731" fill="#fff"></rect><path id="Rectangle_1096_-_Outline" data-name="Rectangle 1096 - Outline" d="M0-.5H127.51a.5.5,0,0,1,.5.5V3.731a.5.5,0,0,1-.5.5H0a.5.5,0,0,1-.5-.5V0A.5.5,0,0,1,0-.5ZM127.01.5H.5V3.231H127.01Z" fill="#263238"></path><path id="Path_6622" data-name="Path 6622" d="M393.187,452.121H340.34a39.237,39.237,0,0,1,16.712-3.731h19.481a39.206,39.206,0,0,1,16.712,3.731Z" transform="translate(-302.999 -380.94)" fill="#fff"></path><path id="Path_6622_-_Outline" data-name="Path 6622 - Outline" d="M393.246,452.621H340.34a.5.5,0,0,1-.213-.952,39.739,39.739,0,0,1,16.912-3.778h19.514a39.7,39.7,0,0,1,16.905,3.779.5.5,0,0,1-.213.952Zm-50.49-1h48.074a39,39,0,0,0-14.277-2.731H357.039A39.027,39.027,0,0,0,342.756,451.621Z" transform="translate(-302.999 -380.94)" fill="#263238"></path></g></g></svg>